<?xml version="1.0" standalone="no"?>
<!DOCTYPE svg PUBLIC "-//W3C//DTD SVG 20010904//EN"
 "http://www.w3.org/TR/2001/REC-SVG-20010904/DTD/svg10.dtd">
<svg version="1.0" xmlns="http://www.w3.org/2000/svg"
 width="200.000000pt" height="200.000000pt" viewBox="0 0 200.000000 200.000000"
 preserveAspectRatio="xMidYMid meet">

<g transform="translate(0.000000,200.000000) scale(0.100000,-0.100000)"
fill="#000000" stroke="none">
<path d="M900 1929 c-158 -13 -315 -71 -443 -163 -79 -56 -191 -172 -247 -256
-40 -59 -114 -210 -106 -217 2 -2 19 4 39 12 49 20 83 19 134 -6 37 -18 92
-74 82 -83 -2 -2 -29 -9 -59 -15 -119 -25 -193 -79 -220 -164 -18 -58 -14
-182 10 -276 41 -160 106 -274 230 -405 131 -137 280 -225 456 -267 131 -32
324 -30 455 4 168 44 308 127 435 258 168 174 250 363 261 604 13 261 -74 497
-251 682 -212 224 -462 318 -776 292z m430 -464 c-55 -55 -100 -104 -100 -110
0 -13 42 -55 55 -55 6 0 53 47 105 105 82 92 96 103 108 91 13 -13 6 -22 -49
-73 -35 -32 -84 -77 -109 -100 l-45 -42 31 -31 31 -31 101 110 c86 93 103 107
113 95 13 -15 -7 -36 -171 -181 l-35 -31 24 -26 c14 -14 29 -26 35 -26 6 0 54
47 105 105 81 91 97 104 109 92 12 -12 5 -22 -44 -68 -32 -30 -81 -75 -109
-101 l-50 -47 30 -31 29 -30 106 105 106 106 24 -26 24 -26 -209 -210 c-116
-116 -225 -217 -243 -225 -18 -8 -55 -23 -82 -34 l-48 -19 -69 51 c-150 113
-143 111 -77 23 81 -107 79 -104 52 -114 -20 -8 -34 2 -126 92 -112 111 -110
104 -72 192 l20 46 77 -59 c43 -32 84 -62 92 -67 8 -4 -21 38 -63 94 -76 100
-78 103 -65 134 7 18 105 125 228 249 l215 217 23 -21 24 -22 -101 -101z
m-834 -106 c19 -11 43 -41 58 -71 45 -90 35 -194 -41 -423 -31 -92 -37 -125
-37 -200 -1 -102 15 -144 78 -205 32 -30 34 -35 19 -42 -38 -15 -133 -8 -173
12 -50 26 -76 64 -96 141 -20 78 -14 158 21 284 14 50 37 132 51 184 43 155
31 248 -37 305 -16 14 -29 27 -29 30 0 8 72 14 115 9 21 -2 54 -13 71 -24z
m413 -605 l42 -77 -27 -38 c-38 -55 -118 -128 -161 -145 -68 -29 -155 -15
-193 31 -15 18 -18 14 44 51 65 37 164 131 211 199 21 30 39 55 41 55 1 0 21
-34 43 -76z"/>
</g>
</svg>
