<svg width="24" height="34" viewBox="0 0 24 34" fill="none" xmlns="http://www.w3.org/2000/svg">
<path d="M1.58173 16.43H2.79907C3.14688 16.43 3.42016 16.1485 3.42016 15.8089V12.5047C3.42016 12.1569 3.14688 11.8836 2.79907 11.8836H1.58173C1.24219 11.8836 0.960632 12.1569 0.960632 12.5047V15.8089C0.960632 16.1568 1.24219 16.43 1.58173 16.43ZM3.46985 11.5607L3.39532 9.2916C3.39532 9.19223 3.43673 9.10942 3.51954 9.05973C3.60235 9.00176 3.70173 9.00176 3.78454 9.04317C3.87563 9.08457 6.06188 10.1446 7.70157 8.34754C7.76782 8.27301 7.87548 8.23989 7.97485 8.27301C7.99141 8.27301 9.67251 8.77817 10.5503 8.27301C10.7905 8.13223 10.9478 7.9252 11.0141 7.65192C11.0389 7.54426 11.1217 7.46973 11.2211 7.45317C11.3288 7.42832 11.4281 7.46973 11.4861 7.56082C11.5524 7.65192 13.0927 9.72223 15.0636 8.55457C15.1795 8.48004 15.3286 8.51317 15.4114 8.62911C15.4777 8.71192 17.0345 10.6746 19.4692 9.69739C19.5603 9.66426 19.6514 9.67254 19.7177 9.72223C19.7922 9.77192 19.8419 9.85473 19.8419 9.94582V11.5193C20.0158 11.4116 20.2228 11.3536 20.4464 11.3536H21.2V9.46551C21.2 6.93973 20.2145 4.55473 18.4258 2.77426C17.5498 1.89177 16.5071 1.19209 15.3585 0.715851C14.2098 0.239612 12.978 -0.00369961 11.7345 4.25178e-05C6.50907 4.25178e-05 2.26079 4.24832 2.26079 9.46551V11.3536H2.79079C3.04751 11.3454 3.2711 11.4199 3.46985 11.5607ZM19.8502 12.3557V15.958C19.9247 16.2396 20.1649 16.43 20.4547 16.43H21.672C22.0199 16.43 22.2931 16.1568 22.2931 15.8089V12.5047C22.2931 12.1569 22.0116 11.8836 21.672 11.8836H20.4547C20.3149 11.8802 20.1782 11.9254 20.068 12.0115C19.9578 12.0976 19.8808 12.2192 19.8502 12.3557ZM19.2374 19.8833C20.0986 19.8833 20.7942 19.1877 20.7942 18.3347V16.9683H20.4547C20.2394 16.9683 20.0241 16.9021 19.8502 16.8027C19.8502 17.8875 19.6266 18.931 19.2374 19.8833ZM11.8505 19.2374C11.7377 19.2374 11.6294 19.2816 11.5489 19.3606C11.4683 19.4395 11.422 19.547 11.4199 19.6597V20.6535C11.4199 20.8854 11.6103 21.0841 11.8505 21.0841H14.0616C14.2934 21.0841 14.4839 20.8936 14.4839 20.6535V19.6597C14.4839 19.4279 14.2934 19.2374 14.0616 19.2374H11.8505Z" fill="white"/>
<path d="M15.1381 9.1177C13.3908 10.0121 11.9499 8.84442 11.3536 8.22333C11.2294 8.43864 11.0472 8.61255 10.8153 8.74505C9.90438 9.26676 8.46345 8.96036 7.98313 8.83614C6.53391 10.2936 4.73688 9.94583 3.95016 9.68083L4.1572 16.6122C4.1572 18.6991 5.01845 20.7363 6.50907 22.2104C7.21118 22.9017 8.04085 23.4501 8.95204 23.8252C8.97688 23.8335 9.01001 23.8335 9.02657 23.85C9.03485 23.85 9.03485 23.85 9.03485 23.8583C9.04313 23.8583 9.0597 23.8666 9.0597 23.8666C9.95407 24.2144 10.9064 24.3883 11.8753 24.3718C14.6578 24.3138 17.1008 22.7155 18.3678 20.4133H15.0139V20.6452C15.0139 21.1752 14.5833 21.6058 14.0533 21.6058H11.8422C11.3122 21.6058 10.8816 21.1752 10.8816 20.6452V19.6515C10.8816 19.1215 11.3122 18.6908 11.8422 18.6908H14.0533C14.5833 18.6908 15.0139 19.1215 15.0139 19.6515V19.8833H18.6328C19.0634 18.9393 19.3036 17.8875 19.3036 16.7944V10.3102C17.1422 10.981 15.6102 9.62286 15.1381 9.1177Z" fill="white"/>
<path d="M1.87984 19.3865C1.97094 19.3947 2.04547 19.4444 2.09516 19.5272C2.13656 19.6018 2.13656 19.7011 2.10344 19.784C1.96266 20.0572 1.88813 20.3719 1.88813 20.6949C1.88813 21.0924 2.00406 21.4816 2.21938 21.8129C2.59203 22.3677 3.21313 22.699 3.88391 22.699C4.11578 22.699 4.34766 22.6575 4.56297 22.5747C4.65406 22.5416 4.74516 22.5582 4.82797 22.6161C4.9025 22.6741 4.93563 22.7735 4.92734 22.8646C4.91906 22.8894 4.91906 22.9308 4.91906 22.964C4.91906 23.1793 4.95219 23.3946 5.01844 23.585C5.1512 23.9843 5.40529 24.3322 5.74525 24.5801C6.08522 24.828 6.4941 24.9636 6.91484 24.968C7.52766 24.968 8.10734 24.6782 8.48828 24.1979C7.63531 23.8086 6.83203 23.2704 6.13641 22.5913C5.33312 21.8046 4.70375 20.8688 4.27312 19.8502C3.84154 18.8281 3.6191 17.73 3.61891 16.6205C3.41188 16.8358 3.12203 16.9683 2.79906 16.9683H1.58172C1.05172 16.9683 0.604531 16.604 0.472031 16.1071C0.173906 16.4632 0 16.9104 0 17.3907C0 18.459 0.819844 19.3368 1.87984 19.3865ZM21.3325 16.9683V18.3347C21.3303 18.889 21.1086 19.4198 20.7159 19.8109C20.3232 20.202 19.7916 20.4216 19.2373 20.4216H18.9806C18.1313 22.1103 16.724 23.4533 14.9973 24.2227C15.3783 24.6865 15.9414 24.968 16.5542 24.968C17.6556 24.968 18.55 24.0736 18.55 22.9722V22.8646C18.5334 22.7735 18.5748 22.6824 18.6494 22.6161C18.7239 22.5582 18.8233 22.5416 18.9144 22.5747C19.1214 22.6575 19.3533 22.699 19.5852 22.699C20.2642 22.699 20.8853 22.3594 21.2497 21.8046C21.465 21.4733 21.5892 21.0841 21.5892 20.6949C21.5892 20.3802 21.5147 20.0738 21.3656 19.784C21.3242 19.7011 21.3242 19.6018 21.3739 19.5272C21.4153 19.4444 21.4981 19.3947 21.5892 19.3865C22.099 19.3592 22.5788 19.1367 22.9288 18.765C23.2789 18.3934 23.4723 17.9012 23.4691 17.3907C23.4691 16.8193 23.2206 16.281 22.8148 15.9083C22.7569 16.4963 22.2683 16.9683 21.6638 16.9683H21.3325ZM9.20875 24.496V26.5415C9.20875 27.2122 9.47375 27.8416 9.95406 28.3219C10.4344 28.8022 11.0638 29.059 11.7345 29.059C13.1258 29.059 14.252 27.9327 14.252 26.5497V24.5208C13.5067 24.7693 12.7117 24.91 11.8919 24.9266H11.7345C10.8751 24.9175 10.0226 24.7722 9.20875 24.496Z" fill="white"/>
<path d="M7.33718 26.4421C7.10531 26.8479 6.97281 27.3033 6.97281 27.7836C6.97281 29.2577 8.17359 30.4585 9.65593 30.4585C10.3681 30.4585 11.0389 30.1852 11.5441 29.6883C11.5688 29.6628 11.5984 29.6425 11.6311 29.6286C11.6638 29.6147 11.699 29.6076 11.7345 29.6076C11.7701 29.6076 11.8052 29.6147 11.838 29.6286C11.8707 29.6425 11.9003 29.6628 11.925 29.6883C12.4302 30.1852 13.0927 30.4585 13.8048 30.4585C15.2872 30.4585 16.4962 29.2577 16.4962 27.7836C16.4962 27.3033 16.3637 26.8479 16.1319 26.4421H14.7986V26.5415C14.7964 27.3512 14.4738 28.1272 13.9012 28.6998C13.3286 29.2724 12.5526 29.595 11.7428 29.5972C10.9312 29.5972 10.1611 29.2825 9.5814 28.7029C9.29695 28.4195 9.07146 28.0826 8.91795 27.7116C8.76444 27.3407 8.68595 26.9429 8.68703 26.5415V26.4421H7.33718Z" fill="white"/>
<path d="M18.3678 26.4421H16.7364C17.0419 27.1083 17.1114 27.8587 16.9334 28.5697C16.7554 29.2807 16.3404 29.9098 15.757 30.3534C15.1736 30.797 14.4564 31.0286 13.7237 31.0101C12.991 30.9915 12.2865 30.724 11.7262 30.2515C11.1548 30.74 10.4261 31.005 9.64765 31.005C7.87546 31.005 6.42624 29.5641 6.42624 27.7836C6.42624 27.3116 6.5339 26.8561 6.71608 26.4421H5.0764C2.44296 26.4421 0.306396 28.5786 0.306396 31.2121V33.9283H23.1461V31.2121C23.1544 28.5869 21.0095 26.4421 18.3678 26.4421Z" fill="white"/>
</svg>
