<svg width="175" height="180" viewBox="0 0 175 180" fill="none" xmlns="http://www.w3.org/2000/svg">
<path d="M75.4918 180C112.303 180 142.144 178.03 142.144 175.599C142.144 173.168 112.303 171.198 75.4918 171.198C38.6806 171.198 8.8392 173.168 8.8392 175.599C8.8392 178.03 38.6806 180 75.4918 180Z" fill="#56CCF2"/>
<path opacity="0.8" d="M75.4918 180C112.303 180 142.144 178.03 142.144 175.599C142.144 173.168 112.303 171.198 75.4918 171.198C38.6806 171.198 8.8392 173.168 8.8392 175.599C8.8392 178.03 38.6806 180 75.4918 180Z" fill="white"/>
<path d="M125.578 8.24626H58.5592C53.9322 8.24626 50.1813 12.2218 50.1813 17.126V167.089C50.1813 171.994 53.9322 175.969 58.5592 175.969H125.578C130.205 175.969 133.956 171.994 133.956 167.089V17.126C133.956 12.2218 130.205 8.24626 125.578 8.24626Z" fill="#263238"/>
<path d="M130.231 26.6638H53.9024V157.552H130.231V26.6638Z" fill="white" stroke="#263238" stroke-width="1.33739" stroke-miterlimit="10"/>
<path d="M103.767 79.6641C110.228 72.816 110.228 61.7132 103.767 54.8651C97.3064 48.0171 86.8309 48.0171 80.3699 54.8651C73.9088 61.7132 73.9088 72.816 80.3699 79.6641C86.8309 86.5121 97.3064 86.5121 103.767 79.6641Z" fill="#56CCF2"/>
<path d="M113.79 149.321H70.3521C70.2543 149.321 70.1574 149.302 70.067 149.262C69.9765 149.223 69.8942 149.165 69.8249 149.092C69.7556 149.019 69.7006 148.932 69.663 148.837C69.6255 148.741 69.6062 148.638 69.6062 148.535C69.6056 148.431 69.6245 148.328 69.6618 148.232C69.6991 148.135 69.754 148.048 69.8234 147.974C69.8927 147.901 69.9752 147.843 70.066 147.803C70.1567 147.764 70.254 147.744 70.3521 147.744H113.79C113.887 147.744 113.984 147.765 114.074 147.804C114.165 147.844 114.247 147.903 114.316 147.976C114.385 148.05 114.439 148.137 114.476 148.233C114.513 148.329 114.532 148.431 114.531 148.535C114.531 148.743 114.453 148.943 114.314 149.091C114.175 149.238 113.986 149.321 113.79 149.321Z" fill="#56CCF2"/>
<path d="M115.204 94.6578H68.9335C67.9786 94.6578 67.2045 95.4783 67.2045 96.4904V102.272C67.2045 103.284 67.9786 104.104 68.9335 104.104H115.204C116.159 104.104 116.933 103.284 116.933 102.272V96.4904C116.933 95.4783 116.159 94.6578 115.204 94.6578Z" fill="#56CCF2"/>
<path d="M115.204 112.326H68.9335C67.9786 112.326 67.2045 113.146 67.2045 114.158V119.94C67.2045 120.952 67.9786 121.772 68.9335 121.772H115.204C116.159 121.772 116.933 120.952 116.933 119.94V114.158C116.933 113.146 116.159 112.326 115.204 112.326Z" fill="#56CCF2"/>
<path d="M100.306 76.0118L95.4384 73.0412V70.5871C96.1433 69.6832 96.6539 68.6274 96.9346 67.4931C97.1022 67.5562 97.2786 67.5886 97.4564 67.5891C98.06 67.5891 98.4438 65.6057 98.5085 64.1889C99.2113 62.6122 98.2541 61.6891 98.2541 61.6891C98.2541 61.6891 98.6508 61.2686 98.9138 59.5823C99.1768 57.8959 97.9867 58.5997 97.0597 57.055C96.1326 55.5103 95.4686 53.8285 92.4244 53.8285C91.5856 53.7993 90.7579 54.0382 90.0489 54.5141C89.3399 54.9901 88.7824 55.6812 88.4489 56.4974C87.6911 56.5003 86.9361 56.5938 86.1981 56.7762C85.2668 57.055 85.0037 60.2861 85.7971 61.552C86.1523 62.2438 86.3418 63.0175 86.349 63.805C86.1378 63.5308 85.9179 63.4577 85.7971 64.0792C85.5341 65.4823 86.5948 67.4474 86.5948 67.4474L87.1424 67.2829C87.4183 68.4951 87.9506 69.625 88.699 70.5871V73.0412L83.8309 76.0118C83.2624 76.3597 82.7902 76.8599 82.4618 77.4624C82.1333 78.0648 81.9601 78.7482 81.9596 79.4439V81.144C84.8549 83.5146 88.4101 84.8006 92.0687 84.8006C95.7273 84.8006 99.2826 83.5146 102.178 81.144V79.4439C102.178 78.748 102.005 78.0642 101.677 77.4616C101.348 76.8591 100.876 76.359 100.306 76.0118Z" fill="#263238"/>
<path d="M73.5041 119.423C73.3924 119.422 73.2858 119.374 73.2065 119.291C73.1641 119.25 73.1303 119.201 73.1072 119.146C73.0842 119.091 73.0724 119.031 73.0729 118.971C73.0742 118.888 73.0965 118.808 73.1375 118.738L73.9137 117.422L72.4002 117.472C72.3432 117.476 72.286 117.467 72.2325 117.445C72.179 117.424 72.1304 117.391 72.0898 117.348C72.0195 117.265 71.9806 117.157 71.9806 117.044C71.9806 116.932 72.0195 116.824 72.0898 116.741C72.1295 116.696 72.1779 116.662 72.2315 116.64C72.2852 116.618 72.3428 116.609 72.4002 116.613L73.8921 116.672L73.1246 115.36C73.0829 115.289 73.0605 115.207 73.0599 115.123C73.0595 115.062 73.0712 115.003 73.0943 114.948C73.1173 114.892 73.1512 114.843 73.1936 114.803C73.2728 114.72 73.3795 114.672 73.4911 114.67C73.5646 114.671 73.6364 114.693 73.6982 114.736C73.7601 114.778 73.8094 114.837 73.8404 114.908L74.5777 116.32L75.3064 114.917C75.341 114.842 75.3942 114.779 75.4603 114.734C75.5264 114.689 75.6029 114.664 75.6815 114.661C75.736 114.662 75.7899 114.674 75.8396 114.697C75.8893 114.721 75.9339 114.755 75.9704 114.798C76.0496 114.885 76.093 115.002 76.0912 115.123C76.0909 115.201 76.0716 115.278 76.0351 115.347L75.2547 116.672L76.7681 116.613C76.8256 116.609 76.8831 116.618 76.9368 116.64C76.9905 116.662 77.0389 116.696 77.0786 116.741C77.1521 116.821 77.1924 116.93 77.1907 117.042C77.1904 117.155 77.1505 117.265 77.0786 117.348C77.038 117.391 76.9893 117.424 76.9358 117.445C76.8823 117.467 76.8252 117.476 76.7681 117.472L75.246 117.422L76.0049 118.724C76.0475 118.797 76.0699 118.881 76.0696 118.966C76.0696 119.087 76.0242 119.204 75.9433 119.289C75.8624 119.375 75.7528 119.423 75.6384 119.423C75.5645 119.422 75.4925 119.398 75.4312 119.354C75.3699 119.311 75.322 119.249 75.2935 119.176L74.5734 117.805L73.8576 119.176C73.8259 119.248 73.7761 119.309 73.7137 119.353C73.6513 119.396 73.5787 119.421 73.5041 119.423Z" fill="#263238"/>
<path d="M80.4979 119.423C80.3863 119.422 80.2796 119.374 80.2004 119.291C80.1579 119.25 80.1241 119.201 80.101 119.146C80.078 119.091 80.0663 119.031 80.0667 118.971C80.068 118.888 80.0904 118.808 80.1314 118.738L80.9075 117.422L79.3984 117.472C79.3408 117.475 79.2832 117.465 79.2292 117.444C79.1751 117.423 79.1256 117.39 79.0836 117.348C79.0264 117.286 78.9882 117.206 78.9741 117.121C78.9601 117.035 78.9707 116.946 79.0047 116.867C79.0386 116.788 79.0943 116.721 79.1645 116.676C79.2348 116.63 79.3162 116.608 79.3984 116.613L80.886 116.672L80.1184 115.36C80.0767 115.289 80.0543 115.207 80.0538 115.123C80.0533 115.062 80.0651 115.003 80.0881 114.948C80.1111 114.892 80.145 114.843 80.1874 114.803C80.2667 114.72 80.3733 114.672 80.4849 114.67C80.5584 114.671 80.6302 114.693 80.6921 114.736C80.7539 114.778 80.8032 114.837 80.8342 114.908L81.5715 116.32L82.3002 114.917C82.3348 114.842 82.388 114.779 82.4541 114.734C82.5203 114.689 82.5968 114.664 82.6754 114.661C82.73 114.661 82.784 114.673 82.8338 114.697C82.8836 114.72 82.9281 114.755 82.9643 114.798C83.0042 114.841 83.0358 114.892 83.0573 114.947C83.0788 115.003 83.0896 115.063 83.0893 115.123C83.0878 115.202 83.067 115.279 83.0289 115.347L82.2485 116.672L83.7663 116.622C83.8231 116.618 83.88 116.627 83.9329 116.649C83.9859 116.671 84.0335 116.706 84.0724 116.75C84.1459 116.831 84.1862 116.939 84.1845 117.051C84.1842 117.165 84.1443 117.274 84.0724 117.358C84.0326 117.4 83.9847 117.433 83.9319 117.454C83.8791 117.476 83.8226 117.485 83.7663 117.481L82.2399 117.431L82.9988 118.733C83.0413 118.806 83.0637 118.89 83.0634 118.975C83.0634 119.097 83.018 119.213 82.9371 119.299C82.8563 119.384 82.7466 119.432 82.6322 119.432C82.5583 119.431 82.4863 119.407 82.425 119.364C82.3637 119.32 82.3159 119.258 82.2873 119.186L81.5672 117.815L80.8515 119.186C80.8185 119.256 80.7682 119.315 80.7059 119.357C80.6436 119.398 80.5716 119.421 80.4979 119.423Z" fill="#263238"/>
<path d="M87.496 119.423C87.3829 119.423 87.2745 119.375 87.1942 119.291C87.1518 119.25 87.1179 119.201 87.0949 119.146C87.0718 119.091 87.0601 119.031 87.0605 118.971C87.0618 118.888 87.0842 118.808 87.1252 118.738L87.9013 117.422L86.3922 117.472C86.3109 117.475 86.2305 117.453 86.1612 117.408C86.092 117.363 86.0369 117.297 86.0032 117.218C85.9694 117.14 85.9584 117.052 85.9717 116.967C85.9849 116.882 86.0217 116.803 86.0774 116.741C86.1181 116.697 86.1673 116.662 86.2216 116.64C86.276 116.618 86.3341 116.609 86.3922 116.613L87.8798 116.672L87.1123 115.36C87.0705 115.289 87.0481 115.207 87.0476 115.123C87.0489 115.063 87.0615 115.004 87.0844 114.949C87.1073 114.894 87.1402 114.844 87.1812 114.803C87.2616 114.718 87.37 114.671 87.4831 114.67C87.5558 114.672 87.6267 114.695 87.6877 114.737C87.7487 114.779 87.7973 114.838 87.828 114.908L88.5654 116.32L89.2941 114.917C89.3286 114.842 89.3818 114.779 89.448 114.734C89.5141 114.689 89.5906 114.664 89.6692 114.661C89.7238 114.661 89.7778 114.673 89.8276 114.697C89.8774 114.72 89.9219 114.755 89.9581 114.798C89.998 114.841 90.0297 114.892 90.0511 114.947C90.0726 115.003 90.0834 115.063 90.0831 115.123C90.0816 115.202 90.0608 115.279 90.0228 115.347L89.2423 116.672L90.7601 116.613C90.8159 116.607 90.8722 116.614 90.9253 116.633C90.9784 116.652 91.0271 116.683 91.0679 116.723C91.1088 116.764 91.1409 116.814 91.1622 116.869C91.1835 116.924 91.1934 116.983 91.1913 117.042C91.1922 117.155 91.1538 117.264 91.0835 117.348C91.0429 117.391 90.9942 117.424 90.9407 117.445C90.8872 117.467 90.8301 117.476 90.773 117.472L89.2509 117.422L90.0055 118.724C90.048 118.797 90.0704 118.881 90.0702 118.966C90.0688 119.026 90.0563 119.085 90.0334 119.14C90.0104 119.195 89.9775 119.245 89.9365 119.286C89.899 119.329 89.8537 119.363 89.8032 119.387C89.7528 119.41 89.6984 119.423 89.6433 119.423C89.57 119.422 89.4986 119.398 89.4381 119.354C89.3776 119.31 89.3305 119.248 89.3027 119.176L88.5783 117.805L87.8625 119.176C87.8302 119.251 87.7785 119.313 87.7135 119.357C87.6485 119.401 87.573 119.424 87.496 119.423Z" fill="#263238"/>
<path d="M94.4898 119.423C94.3767 119.423 94.2683 119.375 94.188 119.291C94.1068 119.206 94.0603 119.091 94.0587 118.971C94.0573 118.889 94.0783 118.808 94.119 118.738L94.8952 117.422L93.386 117.472C93.3284 117.475 93.2709 117.465 93.2168 117.444C93.1628 117.423 93.1133 117.39 93.0712 117.348C93.0009 117.265 92.9621 117.157 92.9621 117.044C92.9621 116.932 93.0009 116.824 93.0712 116.741C93.1129 116.698 93.1623 116.665 93.2163 116.643C93.2704 116.621 93.3281 116.61 93.386 116.613L94.8779 116.672L94.1147 115.36C94.0729 115.289 94.0506 115.207 94.05 115.123C94.0514 115.063 94.0639 115.004 94.0868 114.949C94.1098 114.894 94.1427 114.844 94.1837 114.803C94.264 114.718 94.3724 114.671 94.4855 114.67C94.559 114.671 94.6308 114.693 94.6927 114.736C94.7545 114.778 94.8038 114.837 94.8348 114.908L95.5678 116.32L96.2965 114.917C96.3311 114.842 96.3843 114.779 96.4504 114.734C96.5165 114.689 96.593 114.664 96.6716 114.661C96.7262 114.661 96.7802 114.673 96.83 114.697C96.8799 114.72 96.9243 114.755 96.9605 114.798C97.0005 114.841 97.0321 114.892 97.0536 114.947C97.075 115.003 97.0859 115.063 97.0856 115.123C97.084 115.202 97.0632 115.279 97.0252 115.347L96.2448 116.672L97.7625 116.613C97.8183 116.607 97.8747 116.614 97.9278 116.633C97.9809 116.652 98.0295 116.683 98.0704 116.723C98.1112 116.764 98.1434 116.814 98.1647 116.869C98.1859 116.924 98.1958 116.983 98.1937 117.042C98.1946 117.155 98.1562 117.264 98.0859 117.348C98.0453 117.391 97.9966 117.424 97.9431 117.445C97.8896 117.467 97.8325 117.476 97.7755 117.472L96.2534 117.422L97.008 118.724C97.0505 118.797 97.0729 118.881 97.0726 118.966C97.073 119.027 97.0613 119.086 97.0383 119.141C97.0153 119.197 96.9814 119.246 96.939 119.286C96.9015 119.329 96.8561 119.363 96.8057 119.387C96.7553 119.41 96.7009 119.423 96.6458 119.423C96.5724 119.422 96.5011 119.398 96.4406 119.354C96.38 119.31 96.3329 119.248 96.3051 119.176L95.5807 117.805L94.865 119.176C94.8321 119.252 94.779 119.316 94.7123 119.359C94.6457 119.403 94.5683 119.426 94.4898 119.423Z" fill="#263238"/>
<path d="M101.484 119.423C101.371 119.423 101.262 119.375 101.182 119.291C101.115 119.219 101.072 119.126 101.061 119.026C101.049 118.926 101.069 118.825 101.117 118.738L101.889 117.422L100.38 117.472C100.322 117.475 100.265 117.465 100.211 117.444C100.157 117.423 100.107 117.39 100.065 117.348C99.9947 117.265 99.9559 117.157 99.9559 117.045C99.9559 116.932 99.9947 116.824 100.065 116.741C100.107 116.698 100.156 116.665 100.21 116.643C100.264 116.621 100.322 116.61 100.38 116.613L101.872 116.672L101.104 115.36C101.062 115.289 101.04 115.207 101.04 115.123C101.041 115.002 101.088 114.887 101.169 114.803C101.249 114.718 101.358 114.671 101.471 114.67C101.544 114.671 101.616 114.693 101.678 114.736C101.74 114.778 101.789 114.837 101.82 114.908L102.553 116.32L103.282 114.917C103.316 114.842 103.369 114.779 103.436 114.734C103.502 114.689 103.578 114.664 103.657 114.661C103.712 114.661 103.767 114.673 103.817 114.697C103.868 114.72 103.913 114.755 103.95 114.798C104.029 114.885 104.073 115.002 104.071 115.123C104.069 115.202 104.048 115.279 104.01 115.347L103.23 116.672L104.748 116.613C104.804 116.607 104.86 116.614 104.913 116.633C104.966 116.652 105.015 116.683 105.056 116.723C105.096 116.764 105.129 116.814 105.15 116.869C105.171 116.924 105.181 116.983 105.179 117.042C105.18 117.155 105.141 117.264 105.071 117.348C105.031 117.391 104.982 117.424 104.928 117.445C104.875 117.467 104.818 117.476 104.761 117.472L103.239 117.422L103.993 118.724C104.036 118.797 104.058 118.881 104.058 118.966C104.058 119.027 104.047 119.086 104.023 119.141C104 119.197 103.967 119.246 103.924 119.286C103.887 119.329 103.841 119.363 103.791 119.387C103.74 119.41 103.686 119.423 103.631 119.423C103.558 119.422 103.486 119.398 103.426 119.354C103.365 119.31 103.318 119.248 103.29 119.176L102.566 117.805L101.85 119.176C101.818 119.251 101.766 119.313 101.701 119.357C101.636 119.401 101.561 119.424 101.484 119.423Z" fill="#263238"/>
<path d="M108.477 119.423C108.366 119.422 108.259 119.374 108.18 119.291C108.138 119.25 108.104 119.201 108.081 119.146C108.058 119.091 108.046 119.031 108.046 118.971C108.048 118.888 108.07 118.808 108.111 118.738L108.883 117.422L107.374 117.472C107.318 117.476 107.262 117.468 107.21 117.449C107.157 117.429 107.109 117.398 107.069 117.358C107.028 117.317 106.996 117.268 106.974 117.214C106.953 117.16 106.942 117.101 106.942 117.042C106.942 116.986 106.952 116.931 106.972 116.879C106.992 116.827 107.022 116.78 107.059 116.741C107.099 116.696 107.147 116.662 107.201 116.64C107.254 116.618 107.312 116.609 107.369 116.613L108.861 116.672L108.094 115.36C108.052 115.289 108.03 115.207 108.029 115.123C108.031 115.002 108.077 114.887 108.158 114.803C108.239 114.718 108.347 114.671 108.46 114.67C108.534 114.671 108.606 114.693 108.667 114.736C108.729 114.778 108.778 114.837 108.809 114.908L109.542 116.32L110.276 114.917C110.31 114.843 110.362 114.78 110.428 114.735C110.493 114.69 110.568 114.664 110.646 114.661C110.702 114.661 110.756 114.673 110.807 114.697C110.857 114.72 110.903 114.755 110.94 114.798C111.019 114.885 111.062 115.002 111.06 115.123C111.06 115.201 111.041 115.278 111.004 115.347L110.224 116.672L111.737 116.613C111.795 116.609 111.852 116.618 111.906 116.64C111.96 116.662 112.008 116.696 112.048 116.741C112.121 116.821 112.161 116.93 112.16 117.042C112.16 117.155 112.12 117.265 112.048 117.348C112.007 117.391 111.958 117.424 111.905 117.445C111.851 117.467 111.794 117.476 111.737 117.472L110.215 117.422L110.97 118.724C111.012 118.797 111.035 118.881 111.034 118.966C111.033 119.087 110.986 119.202 110.905 119.286C110.826 119.371 110.72 119.42 110.608 119.423C110.534 119.422 110.463 119.398 110.402 119.354C110.342 119.31 110.295 119.248 110.267 119.176L109.542 117.805L108.827 119.176C108.796 119.248 108.747 119.309 108.685 119.352C108.623 119.396 108.552 119.42 108.477 119.423Z" fill="#263238"/>
<g style="mix-blend-mode:multiply">
<path d="M130.231 26.8375H53.9024V31.9057H130.231V26.8375Z" fill="#56CCF2"/>
</g>
<path d="M100.367 17.5007H83.7663C83.4667 17.5007 83.1793 17.3746 82.9674 17.15C82.7556 16.9255 82.6366 16.6209 82.6366 16.3034C82.6366 15.9858 82.7556 15.6812 82.9674 15.4567C83.1793 15.2321 83.4667 15.106 83.7663 15.106H100.367C100.667 15.106 100.954 15.2321 101.166 15.4567C101.378 15.6812 101.497 15.9858 101.497 16.3034C101.497 16.6209 101.378 16.9255 101.166 17.15C100.954 17.3746 100.667 17.5007 100.367 17.5007Z" fill="#56CCF2" stroke="#263238" stroke-width="1.33739" stroke-linecap="round" stroke-linejoin="round"/>
<path d="M96.594 164.946C96.5949 163.997 96.3299 163.068 95.8328 162.278C95.3356 161.489 94.6286 160.873 93.8011 160.509C92.9737 160.145 92.063 160.05 91.1844 160.235C90.3057 160.42 89.4986 160.877 88.8652 161.548C88.2317 162.22 87.8005 163.075 87.6259 164.006C87.4514 164.938 87.5414 165.903 87.8846 166.78C88.2278 167.657 88.8087 168.406 89.5539 168.933C90.2991 169.46 91.1751 169.741 92.0709 169.74C93.2701 169.739 94.4199 169.233 95.268 168.335C96.116 167.436 96.5929 166.217 96.594 164.946Z" fill="#56CCF2"/>
<path d="M94.3648 162.515H89.777V167.377H94.3648V162.515Z" fill="#56CCF2" stroke="#263238" stroke-width="1.33739" stroke-linecap="round" stroke-linejoin="round"/>
<path d="M146.719 109.767C146.719 109.767 140.709 93.5793 146.06 91.6553C151.63 89.649 151.385 100.338 151.169 105.548C150.716 116.681 149.556 118.751 148.69 116.032L146.719 109.767ZM144.913 122.394C146.564 124.679 147.03 122.312 144.05 111.622C142.653 106.595 139.618 96.4265 134.961 100.243C130.489 103.899 141.131 117.152 141.131 117.152L144.913 122.394ZM141.722 131.671C143.296 133.152 143.326 131.283 139.587 123.564C137.833 119.949 134.12 112.632 131.08 116.252C128.161 119.743 138.109 128.23 138.109 128.23L141.722 131.671ZM138.272 142.703C139.846 144.189 139.876 142.315 136.138 134.601C134.383 130.986 130.671 123.664 127.631 127.288C124.729 130.789 134.646 139.276 134.646 139.276L138.272 142.703ZM148.233 120.246C145.715 121.288 147.715 122.421 158.232 122.389C163.165 122.389 173.237 122.152 171.09 116.343C169.033 110.763 154.054 117.869 154.054 117.869L148.233 120.246ZM145.365 127.668C142.701 128.157 144.451 129.692 154.765 131.877C159.599 132.905 169.512 134.802 168.498 128.678C167.528 122.773 151.514 126.585 151.514 126.585L145.365 127.668ZM142.157 136.73C139.889 137.078 141.338 138.417 150.009 140.519C154.075 141.506 162.419 143.357 161.694 138.133C161.004 133.106 147.379 135.949 147.379 135.949L142.157 136.73ZM139.721 145.126C137.501 145.724 139.074 146.894 147.914 148.009C152.053 148.53 160.534 149.435 159.297 144.321C158.103 139.413 144.839 143.759 144.839 143.759L139.721 145.126ZM152.717 111.138C151.424 114.209 154.11 113.743 163.242 105.297C167.52 101.335 176.1 93.0446 169.305 88.9178C162.781 84.9509 155.766 104.091 155.766 104.091L152.717 111.138ZM140.057 156.062C138.691 156.907 140.032 157.236 146.301 155.911C149.242 155.294 155.222 153.923 153.2 151.217C151.242 148.613 143.222 154.097 143.222 154.097L140.057 156.062Z" fill="#56CCF2"/>
<path opacity="0.3" d="M146.719 109.767C146.719 109.767 140.709 93.5793 146.06 91.6553C151.63 89.649 151.385 100.338 151.169 105.548C150.716 116.681 149.556 118.751 148.69 116.032L146.719 109.767ZM144.913 122.394C146.564 124.679 147.03 122.312 144.05 111.622C142.653 106.595 139.618 96.4265 134.961 100.243C130.489 103.899 141.131 117.152 141.131 117.152L144.913 122.394ZM141.722 131.671C143.296 133.152 143.326 131.283 139.587 123.564C137.833 119.949 134.12 112.632 131.08 116.252C128.161 119.743 138.109 128.23 138.109 128.23L141.722 131.671ZM138.272 142.703C139.846 144.189 139.876 142.315 136.138 134.601C134.383 130.986 130.671 123.664 127.631 127.288C124.729 130.789 134.646 139.276 134.646 139.276L138.272 142.703ZM148.233 120.246C145.715 121.288 147.715 122.421 158.232 122.389C163.165 122.389 173.237 122.152 171.09 116.343C169.033 110.763 154.054 117.869 154.054 117.869L148.233 120.246ZM145.365 127.668C142.701 128.157 144.451 129.692 154.765 131.877C159.599 132.905 169.512 134.802 168.498 128.678C167.528 122.773 151.514 126.585 151.514 126.585L145.365 127.668ZM142.157 136.73C139.889 137.078 141.338 138.417 150.009 140.519C154.075 141.506 162.419 143.357 161.694 138.133C161.004 133.106 147.379 135.949 147.379 135.949L142.157 136.73ZM139.721 145.126C137.501 145.724 139.074 146.894 147.914 148.009C152.053 148.53 160.534 149.435 159.297 144.321C158.103 139.413 144.839 143.759 144.839 143.759L139.721 145.126ZM152.717 111.138C151.424 114.209 154.11 113.743 163.242 105.297C167.52 101.335 176.1 93.0446 169.305 88.9178C162.781 84.9509 155.766 104.091 155.766 104.091L152.717 111.138ZM140.057 156.062C138.691 156.907 140.032 157.236 146.301 155.911C149.242 155.294 155.222 153.923 153.2 151.217C151.242 148.613 143.222 154.097 143.222 154.097L140.057 156.062Z" fill="white"/>
<path d="M149.371 117.303L148.323 98.8258L149.371 117.303ZM146.055 123.399L139.432 107.509L146.055 123.399ZM163.147 118.779L147.275 121.192L163.147 118.779ZM142.623 131.964L134.029 120.278L142.623 131.964ZM144.132 128.381L155.972 129.011L144.132 128.381ZM141.329 137.343L150.384 138.293L141.329 137.343ZM139.143 143.037L134.646 135.866L139.143 143.037ZM138.626 145.569L149.272 145.674L138.626 145.569ZM136.47 166.738C136.541 166.732 136.608 166.696 136.654 166.639C136.701 166.582 136.725 166.507 136.72 166.431C136.043 155.655 139.976 138.005 146.284 123.518C150.315 114.259 166.118 96.0609 166.286 95.8781C166.337 95.8241 166.366 95.7509 166.366 95.6747C166.366 95.5984 166.337 95.5253 166.286 95.4713C166.262 95.4448 166.232 95.4237 166.199 95.4094C166.167 95.395 166.132 95.3876 166.097 95.3876C166.061 95.3876 166.027 95.395 165.994 95.4094C165.961 95.4237 165.932 95.4448 165.907 95.4713C165.747 95.6541 149.88 113.921 145.814 123.262C139.389 138.101 135.508 155.431 136.198 166.468C136.204 166.541 136.235 166.609 136.285 166.659C136.335 166.708 136.401 166.737 136.47 166.738ZM149.367 117.586C149.438 117.581 149.505 117.547 149.552 117.491C149.6 117.434 149.625 117.36 149.621 117.284L148.591 98.7983C148.589 98.7607 148.58 98.7238 148.565 98.6898C148.55 98.6558 148.528 98.6253 148.502 98.6002C148.475 98.5751 148.444 98.5558 148.411 98.5436C148.377 98.5313 148.341 98.5262 148.306 98.5287C148.235 98.5334 148.168 98.5677 148.12 98.6242C148.073 98.6806 148.048 98.7547 148.052 98.8303L149.099 117.307C149.103 117.38 149.132 117.449 149.182 117.499C149.232 117.549 149.298 117.577 149.367 117.577V117.586ZM146.15 123.66C146.215 123.629 146.265 123.572 146.291 123.502C146.317 123.432 146.316 123.354 146.288 123.285L139.661 107.395C139.632 107.326 139.579 107.271 139.513 107.244C139.446 107.217 139.372 107.218 139.307 107.248C139.242 107.279 139.191 107.335 139.165 107.406C139.139 107.476 139.141 107.554 139.169 107.623L145.792 123.513C145.813 123.564 145.847 123.608 145.891 123.639C145.934 123.67 145.986 123.686 146.038 123.687C146.083 123.69 146.127 123.68 146.167 123.66H146.15ZM147.297 121.466L163.16 119.062C163.199 119.061 163.236 119.052 163.271 119.035C163.306 119.017 163.336 118.992 163.361 118.961C163.386 118.93 163.405 118.894 163.415 118.855C163.426 118.816 163.429 118.775 163.424 118.735C163.419 118.695 163.405 118.656 163.385 118.622C163.365 118.587 163.338 118.558 163.306 118.535C163.274 118.513 163.238 118.497 163.201 118.491C163.163 118.484 163.124 118.485 163.087 118.496L147.224 120.899C147.153 120.904 147.087 120.939 147.04 120.995C146.993 121.052 146.969 121.126 146.974 121.201C146.978 121.276 147.011 121.346 147.064 121.396C147.118 121.446 147.187 121.471 147.258 121.466H147.297ZM142.774 132.192C142.83 132.145 142.867 132.077 142.876 132.001C142.885 131.926 142.865 131.85 142.821 131.79L134.224 120.081C134.179 120.021 134.115 119.981 134.043 119.971C133.971 119.961 133.899 119.982 133.842 120.029C133.785 120.075 133.747 120.144 133.738 120.22C133.729 120.296 133.748 120.373 133.792 120.433L142.407 132.16C142.432 132.194 142.464 132.222 142.501 132.241C142.538 132.26 142.578 132.27 142.619 132.27C142.683 132.266 142.744 132.239 142.791 132.192H142.774ZM156.21 129.025C156.212 128.949 156.186 128.876 156.138 128.82C156.089 128.765 156.022 128.732 155.951 128.728L144.132 128.093C144.066 128.098 144.003 128.128 143.957 128.179C143.91 128.229 143.883 128.296 143.879 128.366C143.876 128.437 143.898 128.506 143.939 128.561C143.981 128.616 144.041 128.652 144.106 128.664L155.947 129.299C156.018 129.302 156.087 129.274 156.14 129.223C156.192 129.172 156.224 129.101 156.227 129.025H156.21ZM150.634 138.321C150.639 138.283 150.636 138.245 150.626 138.209C150.616 138.172 150.599 138.138 150.576 138.109C150.554 138.08 150.526 138.055 150.495 138.037C150.463 138.02 150.429 138.009 150.393 138.005L141.338 137.059C141.303 137.056 141.267 137.059 141.234 137.07C141.2 137.081 141.168 137.099 141.141 137.122C141.114 137.146 141.091 137.176 141.075 137.209C141.058 137.242 141.048 137.278 141.045 137.315C141.039 137.39 141.061 137.465 141.106 137.523C141.151 137.581 141.216 137.618 141.286 137.626L150.341 138.577H150.367C150.437 138.582 150.505 138.558 150.558 138.51C150.612 138.462 150.645 138.394 150.652 138.321H150.634ZM139.273 143.275C139.333 143.233 139.374 143.167 139.389 143.093C139.403 143.018 139.39 142.941 139.35 142.877L134.875 135.707C134.834 135.645 134.772 135.602 134.702 135.588C134.632 135.573 134.559 135.588 134.499 135.629C134.44 135.671 134.398 135.736 134.383 135.811C134.369 135.885 134.383 135.963 134.422 136.026L138.898 143.197C138.923 143.236 138.957 143.268 138.997 143.29C139.037 143.313 139.081 143.325 139.126 143.325C139.185 143.328 139.242 143.311 139.29 143.275H139.273ZM149.544 145.674C149.542 145.599 149.514 145.527 149.464 145.473C149.415 145.42 149.347 145.388 149.276 145.386L138.63 145.281C138.559 145.281 138.491 145.311 138.441 145.364C138.391 145.417 138.363 145.489 138.363 145.564C138.362 145.602 138.368 145.64 138.381 145.675C138.394 145.71 138.413 145.742 138.438 145.769C138.463 145.796 138.493 145.817 138.526 145.831C138.559 145.846 138.595 145.853 138.63 145.852L149.276 145.957C149.313 145.959 149.349 145.953 149.383 145.94C149.417 145.926 149.449 145.906 149.475 145.88C149.502 145.853 149.523 145.821 149.538 145.786C149.552 145.751 149.56 145.713 149.561 145.674H149.544ZM135.258 162.547C135.28 162.496 137.095 157.195 142.554 155.929C142.624 155.913 142.686 155.868 142.724 155.803C142.763 155.739 142.776 155.661 142.761 155.586C142.744 155.513 142.7 155.45 142.64 155.41C142.58 155.37 142.507 155.356 142.438 155.372C136.681 156.706 134.771 162.305 134.75 162.359C134.727 162.432 134.732 162.51 134.764 162.578C134.795 162.646 134.85 162.699 134.918 162.725H135.004C135.061 162.73 135.119 162.716 135.168 162.684C135.217 162.652 135.254 162.604 135.276 162.547H135.258ZM136.47 166.738C136.541 166.732 136.608 166.696 136.654 166.639C136.701 166.582 136.725 166.507 136.72 166.431C136.043 155.655 139.976 138.005 146.284 123.518C150.315 114.259 166.118 96.0609 166.286 95.8781C166.337 95.8241 166.366 95.7509 166.366 95.6747C166.366 95.5984 166.337 95.5253 166.286 95.4713C166.262 95.4448 166.232 95.4237 166.199 95.4094C166.167 95.395 166.132 95.3876 166.097 95.3876C166.061 95.3876 166.027 95.395 165.994 95.4094C165.961 95.4237 165.932 95.4448 165.907 95.4713C165.747 95.6541 149.88 113.921 145.814 123.262C139.389 138.101 135.508 155.431 136.198 166.468C136.204 166.541 136.235 166.609 136.285 166.659C136.335 166.708 136.401 166.737 136.47 166.738ZM149.367 117.586C149.438 117.581 149.505 117.547 149.552 117.491C149.6 117.434 149.625 117.36 149.621 117.284L148.591 98.7983C148.589 98.7607 148.58 98.7238 148.565 98.6898C148.55 98.6558 148.528 98.6253 148.502 98.6002C148.475 98.5751 148.444 98.5558 148.411 98.5436C148.377 98.5313 148.341 98.5262 148.306 98.5287C148.235 98.5334 148.168 98.5677 148.12 98.6242C148.073 98.6806 148.048 98.7547 148.052 98.8303L149.099 117.307C149.103 117.38 149.132 117.449 149.182 117.499C149.232 117.549 149.298 117.577 149.367 117.577V117.586ZM146.15 123.66C146.215 123.629 146.265 123.572 146.291 123.502C146.317 123.432 146.316 123.354 146.288 123.285L139.661 107.395C139.632 107.326 139.579 107.271 139.513 107.244C139.446 107.217 139.372 107.218 139.307 107.248C139.242 107.279 139.191 107.335 139.165 107.406C139.139 107.476 139.141 107.554 139.169 107.623L145.792 123.513C145.813 123.564 145.847 123.608 145.891 123.639C145.934 123.67 145.986 123.686 146.038 123.687C146.083 123.69 146.127 123.68 146.167 123.66H146.15ZM147.297 121.466L163.16 119.062C163.199 119.061 163.236 119.052 163.271 119.035C163.306 119.017 163.336 118.992 163.361 118.961C163.386 118.93 163.405 118.894 163.415 118.855C163.426 118.816 163.429 118.775 163.424 118.735C163.419 118.695 163.405 118.656 163.385 118.622C163.365 118.587 163.338 118.558 163.306 118.535C163.274 118.513 163.238 118.497 163.201 118.491C163.163 118.484 163.124 118.485 163.087 118.496L147.224 120.899C147.153 120.904 147.087 120.939 147.04 120.995C146.993 121.052 146.969 121.126 146.974 121.201C146.978 121.276 147.011 121.346 147.064 121.396C147.118 121.446 147.187 121.471 147.258 121.466H147.297ZM142.774 132.192C142.83 132.145 142.867 132.077 142.876 132.001C142.885 131.926 142.865 131.85 142.821 131.79L134.224 120.081C134.202 120.051 134.175 120.026 134.144 120.007C134.113 119.988 134.078 119.976 134.043 119.971C134.008 119.966 133.972 119.969 133.937 119.979C133.903 119.989 133.87 120.006 133.842 120.029C133.814 120.052 133.79 120.081 133.772 120.113C133.754 120.146 133.743 120.183 133.738 120.22C133.733 120.258 133.736 120.296 133.745 120.332C133.755 120.369 133.771 120.403 133.792 120.433L142.407 132.16C142.432 132.194 142.464 132.222 142.501 132.241C142.538 132.26 142.578 132.27 142.619 132.27C142.683 132.266 142.744 132.239 142.791 132.192H142.774ZM156.21 129.025C156.212 128.949 156.186 128.876 156.138 128.82C156.089 128.765 156.022 128.732 155.951 128.728L144.132 128.093C144.066 128.098 144.003 128.128 143.957 128.179C143.91 128.229 143.883 128.296 143.879 128.366C143.876 128.437 143.898 128.506 143.939 128.561C143.981 128.616 144.041 128.652 144.106 128.664L155.947 129.299C156.018 129.302 156.087 129.274 156.14 129.223C156.192 129.172 156.224 129.101 156.227 129.025H156.21ZM150.634 138.321C150.639 138.283 150.636 138.245 150.626 138.209C150.616 138.172 150.599 138.138 150.576 138.109C150.554 138.08 150.526 138.055 150.495 138.037C150.463 138.02 150.429 138.009 150.393 138.005L141.338 137.059C141.303 137.056 141.267 137.059 141.234 137.07C141.2 137.081 141.168 137.099 141.141 137.122C141.114 137.146 141.091 137.176 141.075 137.209C141.058 137.242 141.048 137.278 141.045 137.315C141.039 137.39 141.061 137.465 141.106 137.523C141.151 137.581 141.216 137.618 141.286 137.626L150.341 138.577H150.367C150.437 138.582 150.505 138.558 150.558 138.51C150.612 138.462 150.645 138.394 150.652 138.321H150.634ZM139.273 143.275C139.333 143.233 139.374 143.167 139.389 143.093C139.403 143.018 139.39 142.941 139.35 142.877L134.875 135.707C134.834 135.645 134.772 135.602 134.702 135.588C134.632 135.573 134.559 135.588 134.499 135.629C134.44 135.671 134.398 135.736 134.383 135.811C134.369 135.885 134.383 135.963 134.422 136.026L138.898 143.197C138.923 143.236 138.957 143.268 138.997 143.29C139.037 143.313 139.081 143.325 139.126 143.325C139.185 143.328 139.242 143.311 139.29 143.275H139.273ZM149.544 145.674C149.542 145.599 149.514 145.527 149.464 145.473C149.415 145.42 149.347 145.388 149.276 145.386L138.63 145.281C138.559 145.281 138.491 145.311 138.441 145.364C138.391 145.417 138.363 145.489 138.363 145.564C138.362 145.602 138.368 145.64 138.381 145.675C138.394 145.71 138.413 145.742 138.438 145.769C138.463 145.796 138.493 145.817 138.526 145.831C138.559 145.846 138.595 145.853 138.63 145.852L149.276 145.957C149.313 145.959 149.349 145.953 149.383 145.94C149.417 145.926 149.449 145.906 149.475 145.88C149.502 145.853 149.523 145.821 149.538 145.786C149.552 145.751 149.56 145.713 149.561 145.674H149.544ZM135.258 162.547C135.28 162.496 137.095 157.195 142.554 155.929C142.624 155.913 142.686 155.868 142.724 155.803C142.763 155.739 142.776 155.661 142.761 155.586C142.744 155.513 142.7 155.45 142.64 155.41C142.58 155.37 142.507 155.356 142.438 155.372C136.681 156.706 134.771 162.305 134.75 162.359C134.727 162.432 134.732 162.51 134.764 162.578C134.795 162.646 134.85 162.699 134.918 162.725H135.004C135.061 162.73 135.119 162.716 135.168 162.684C135.217 162.652 135.254 162.604 135.276 162.547H135.258Z" fill="#56CCF2"/>
<path opacity="0.2" d="M149.371 117.303L148.323 98.8258L149.371 117.303ZM146.055 123.399L139.432 107.509L146.055 123.399ZM163.147 118.779L147.275 121.192L163.147 118.779ZM142.623 131.964L134.029 120.278L142.623 131.964ZM144.132 128.381L155.972 129.011L144.132 128.381ZM141.329 137.343L150.384 138.293L141.329 137.343ZM139.143 143.037L134.646 135.866L139.143 143.037ZM138.626 145.569L149.272 145.674L138.626 145.569ZM136.47 166.738C136.541 166.732 136.608 166.696 136.654 166.639C136.701 166.582 136.725 166.507 136.72 166.431C136.043 155.655 139.976 138.005 146.284 123.518C150.315 114.259 166.118 96.0609 166.286 95.8781C166.337 95.8241 166.366 95.7509 166.366 95.6747C166.366 95.5984 166.337 95.5253 166.286 95.4713C166.262 95.4448 166.232 95.4237 166.199 95.4094C166.167 95.395 166.132 95.3876 166.097 95.3876C166.061 95.3876 166.027 95.395 165.994 95.4094C165.961 95.4237 165.932 95.4448 165.907 95.4713C165.747 95.6541 149.88 113.921 145.814 123.262C139.389 138.101 135.508 155.431 136.198 166.468C136.204 166.541 136.235 166.609 136.285 166.659C136.335 166.708 136.401 166.737 136.47 166.738ZM149.367 117.586C149.438 117.581 149.505 117.547 149.552 117.491C149.6 117.434 149.625 117.36 149.621 117.284L148.591 98.7983C148.589 98.7607 148.58 98.7238 148.565 98.6898C148.55 98.6558 148.528 98.6253 148.502 98.6002C148.475 98.5751 148.444 98.5558 148.411 98.5436C148.377 98.5313 148.341 98.5262 148.306 98.5287C148.235 98.5334 148.168 98.5677 148.12 98.6242C148.073 98.6806 148.048 98.7547 148.052 98.8303L149.099 117.307C149.103 117.38 149.132 117.449 149.182 117.499C149.232 117.549 149.298 117.577 149.367 117.577V117.586ZM146.15 123.66C146.215 123.629 146.265 123.572 146.291 123.502C146.317 123.432 146.316 123.354 146.288 123.285L139.661 107.395C139.632 107.326 139.579 107.271 139.513 107.244C139.446 107.217 139.372 107.218 139.307 107.248C139.242 107.279 139.191 107.335 139.165 107.406C139.139 107.476 139.141 107.554 139.169 107.623L145.792 123.513C145.813 123.564 145.847 123.608 145.891 123.639C145.934 123.67 145.986 123.686 146.038 123.687C146.083 123.69 146.127 123.68 146.167 123.66H146.15ZM147.297 121.466L163.16 119.062C163.199 119.061 163.236 119.052 163.271 119.035C163.306 119.017 163.336 118.992 163.361 118.961C163.386 118.93 163.405 118.894 163.415 118.855C163.426 118.816 163.429 118.775 163.424 118.735C163.419 118.695 163.405 118.656 163.385 118.622C163.365 118.587 163.338 118.558 163.306 118.535C163.274 118.513 163.238 118.497 163.201 118.491C163.163 118.484 163.124 118.485 163.087 118.496L147.224 120.899C147.153 120.904 147.087 120.939 147.04 120.995C146.993 121.052 146.969 121.126 146.974 121.201C146.978 121.276 147.011 121.346 147.064 121.396C147.118 121.446 147.187 121.471 147.258 121.466H147.297ZM142.774 132.192C142.83 132.145 142.867 132.077 142.876 132.001C142.885 131.926 142.865 131.85 142.821 131.79L134.224 120.081C134.179 120.021 134.115 119.981 134.043 119.971C133.971 119.961 133.899 119.982 133.842 120.029C133.785 120.075 133.747 120.144 133.738 120.22C133.729 120.296 133.748 120.373 133.792 120.433L142.407 132.16C142.432 132.194 142.464 132.222 142.501 132.241C142.538 132.26 142.578 132.27 142.619 132.27C142.683 132.266 142.744 132.239 142.791 132.192H142.774ZM156.21 129.025C156.212 128.949 156.186 128.876 156.138 128.82C156.089 128.765 156.022 128.732 155.951 128.728L144.132 128.093C144.066 128.098 144.003 128.128 143.957 128.179C143.91 128.229 143.883 128.296 143.879 128.366C143.876 128.437 143.898 128.506 143.939 128.561C143.981 128.616 144.041 128.652 144.106 128.664L155.947 129.299C156.018 129.302 156.087 129.274 156.14 129.223C156.192 129.172 156.224 129.101 156.227 129.025H156.21ZM150.634 138.321C150.639 138.283 150.636 138.245 150.626 138.209C150.616 138.172 150.599 138.138 150.576 138.109C150.554 138.08 150.526 138.055 150.495 138.037C150.463 138.02 150.429 138.009 150.393 138.005L141.338 137.059C141.303 137.056 141.267 137.059 141.234 137.07C141.2 137.081 141.168 137.099 141.141 137.122C141.114 137.146 141.091 137.176 141.075 137.209C141.058 137.242 141.048 137.278 141.045 137.315C141.039 137.39 141.061 137.465 141.106 137.523C141.151 137.581 141.216 137.618 141.286 137.626L150.341 138.577H150.367C150.437 138.582 150.505 138.558 150.558 138.51C150.612 138.462 150.645 138.394 150.652 138.321H150.634ZM139.273 143.275C139.333 143.233 139.374 143.167 139.389 143.093C139.403 143.018 139.39 142.941 139.35 142.877L134.875 135.707C134.834 135.645 134.772 135.602 134.702 135.588C134.632 135.573 134.559 135.588 134.499 135.629C134.44 135.671 134.398 135.736 134.383 135.811C134.369 135.885 134.383 135.963 134.422 136.026L138.898 143.197C138.923 143.236 138.957 143.268 138.997 143.29C139.037 143.313 139.081 143.325 139.126 143.325C139.185 143.328 139.242 143.311 139.29 143.275H139.273ZM149.544 145.674C149.542 145.599 149.514 145.527 149.464 145.473C149.415 145.42 149.347 145.388 149.276 145.386L138.63 145.281C138.559 145.281 138.491 145.311 138.441 145.364C138.391 145.417 138.363 145.489 138.363 145.564C138.362 145.602 138.368 145.64 138.381 145.675C138.394 145.71 138.413 145.742 138.438 145.769C138.463 145.796 138.493 145.817 138.526 145.831C138.559 145.846 138.595 145.853 138.63 145.852L149.276 145.957C149.313 145.959 149.349 145.953 149.383 145.94C149.417 145.926 149.449 145.906 149.475 145.88C149.502 145.853 149.523 145.821 149.538 145.786C149.552 145.751 149.56 145.713 149.561 145.674H149.544ZM135.258 162.547C135.28 162.496 137.095 157.195 142.554 155.929C142.624 155.913 142.686 155.868 142.724 155.803C142.763 155.739 142.776 155.661 142.761 155.586C142.744 155.513 142.7 155.45 142.64 155.41C142.58 155.37 142.507 155.356 142.438 155.372C136.681 156.706 134.771 162.305 134.75 162.359C134.727 162.432 134.732 162.51 134.764 162.578C134.795 162.646 134.85 162.699 134.918 162.725H135.004C135.061 162.73 135.119 162.716 135.168 162.684C135.217 162.652 135.254 162.604 135.276 162.547H135.258ZM136.47 166.738C136.541 166.732 136.608 166.696 136.654 166.639C136.701 166.582 136.725 166.507 136.72 166.431C136.043 155.655 139.976 138.005 146.284 123.518C150.315 114.259 166.118 96.0609 166.286 95.8781C166.337 95.8241 166.366 95.7509 166.366 95.6747C166.366 95.5984 166.337 95.5253 166.286 95.4713C166.262 95.4448 166.232 95.4237 166.199 95.4094C166.167 95.395 166.132 95.3876 166.097 95.3876C166.061 95.3876 166.027 95.395 165.994 95.4094C165.961 95.4237 165.932 95.4448 165.907 95.4713C165.747 95.6541 149.88 113.921 145.814 123.262C139.389 138.101 135.508 155.431 136.198 166.468C136.204 166.541 136.235 166.609 136.285 166.659C136.335 166.708 136.401 166.737 136.47 166.738ZM149.367 117.586C149.438 117.581 149.505 117.547 149.552 117.491C149.6 117.434 149.625 117.36 149.621 117.284L148.591 98.7983C148.589 98.7607 148.58 98.7238 148.565 98.6898C148.55 98.6558 148.528 98.6253 148.502 98.6002C148.475 98.5751 148.444 98.5558 148.411 98.5436C148.377 98.5313 148.341 98.5262 148.306 98.5287C148.235 98.5334 148.168 98.5677 148.12 98.6242C148.073 98.6806 148.048 98.7547 148.052 98.8303L149.099 117.307C149.103 117.38 149.132 117.449 149.182 117.499C149.232 117.549 149.298 117.577 149.367 117.577V117.586ZM146.15 123.66C146.215 123.629 146.265 123.572 146.291 123.502C146.317 123.432 146.316 123.354 146.288 123.285L139.661 107.395C139.632 107.326 139.579 107.271 139.513 107.244C139.446 107.217 139.372 107.218 139.307 107.248C139.242 107.279 139.191 107.335 139.165 107.406C139.139 107.476 139.141 107.554 139.169 107.623L145.792 123.513C145.813 123.564 145.847 123.608 145.891 123.639C145.934 123.67 145.986 123.686 146.038 123.687C146.083 123.69 146.127 123.68 146.167 123.66H146.15ZM147.297 121.466L163.16 119.062C163.199 119.061 163.236 119.052 163.271 119.035C163.306 119.017 163.336 118.992 163.361 118.961C163.386 118.93 163.405 118.894 163.415 118.855C163.426 118.816 163.429 118.775 163.424 118.735C163.419 118.695 163.405 118.656 163.385 118.622C163.365 118.587 163.338 118.558 163.306 118.535C163.274 118.513 163.238 118.497 163.201 118.491C163.163 118.484 163.124 118.485 163.087 118.496L147.224 120.899C147.153 120.904 147.087 120.939 147.04 120.995C146.993 121.052 146.969 121.126 146.974 121.201C146.978 121.276 147.011 121.346 147.064 121.396C147.118 121.446 147.187 121.471 147.258 121.466H147.297ZM142.774 132.192C142.83 132.145 142.867 132.077 142.876 132.001C142.885 131.926 142.865 131.85 142.821 131.79L134.224 120.081C134.202 120.051 134.175 120.026 134.144 120.007C134.113 119.988 134.078 119.976 134.043 119.971C134.008 119.966 133.972 119.969 133.937 119.979C133.903 119.989 133.87 120.006 133.842 120.029C133.814 120.052 133.79 120.081 133.772 120.113C133.754 120.146 133.743 120.183 133.738 120.22C133.733 120.258 133.736 120.296 133.745 120.332C133.755 120.369 133.771 120.403 133.792 120.433L142.407 132.16C142.432 132.194 142.464 132.222 142.501 132.241C142.538 132.26 142.578 132.27 142.619 132.27C142.683 132.266 142.744 132.239 142.791 132.192H142.774ZM156.21 129.025C156.212 128.949 156.186 128.876 156.138 128.82C156.089 128.765 156.022 128.732 155.951 128.728L144.132 128.093C144.066 128.098 144.003 128.128 143.957 128.179C143.91 128.229 143.883 128.296 143.879 128.366C143.876 128.437 143.898 128.506 143.939 128.561C143.981 128.616 144.041 128.652 144.106 128.664L155.947 129.299C156.018 129.302 156.087 129.274 156.14 129.223C156.192 129.172 156.224 129.101 156.227 129.025H156.21ZM150.634 138.321C150.639 138.283 150.636 138.245 150.626 138.209C150.616 138.172 150.599 138.138 150.576 138.109C150.554 138.08 150.526 138.055 150.495 138.037C150.463 138.02 150.429 138.009 150.393 138.005L141.338 137.059C141.303 137.056 141.267 137.059 141.234 137.07C141.2 137.081 141.168 137.099 141.141 137.122C141.114 137.146 141.091 137.176 141.075 137.209C141.058 137.242 141.048 137.278 141.045 137.315C141.039 137.39 141.061 137.465 141.106 137.523C141.151 137.581 141.216 137.618 141.286 137.626L150.341 138.577H150.367C150.437 138.582 150.505 138.558 150.558 138.51C150.612 138.462 150.645 138.394 150.652 138.321H150.634ZM139.273 143.275C139.333 143.233 139.374 143.167 139.389 143.093C139.403 143.018 139.39 142.941 139.35 142.877L134.875 135.707C134.834 135.645 134.772 135.602 134.702 135.588C134.632 135.573 134.559 135.588 134.499 135.629C134.44 135.671 134.398 135.736 134.383 135.811C134.369 135.885 134.383 135.963 134.422 136.026L138.898 143.197C138.923 143.236 138.957 143.268 138.997 143.29C139.037 143.313 139.081 143.325 139.126 143.325C139.185 143.328 139.242 143.311 139.29 143.275H139.273ZM149.544 145.674C149.542 145.599 149.514 145.527 149.464 145.473C149.415 145.42 149.347 145.388 149.276 145.386L138.63 145.281C138.559 145.281 138.491 145.311 138.441 145.364C138.391 145.417 138.363 145.489 138.363 145.564C138.362 145.602 138.368 145.64 138.381 145.675C138.394 145.71 138.413 145.742 138.438 145.769C138.463 145.796 138.493 145.817 138.526 145.831C138.559 145.846 138.595 145.853 138.63 145.852L149.276 145.957C149.313 145.959 149.349 145.953 149.383 145.94C149.417 145.926 149.449 145.906 149.475 145.88C149.502 145.853 149.523 145.821 149.538 145.786C149.552 145.751 149.56 145.713 149.561 145.674H149.544ZM135.258 162.547C135.28 162.496 137.095 157.195 142.554 155.929C142.624 155.913 142.686 155.868 142.724 155.803C142.763 155.739 142.776 155.661 142.761 155.586C142.744 155.513 142.7 155.45 142.64 155.41C142.58 155.37 142.507 155.356 142.438 155.372C136.681 156.706 134.771 162.305 134.75 162.359C134.727 162.432 134.732 162.51 134.764 162.578C134.795 162.646 134.85 162.699 134.918 162.725H135.004C135.061 162.73 135.119 162.716 135.168 162.684C135.217 162.652 135.254 162.604 135.276 162.547H135.258Z" fill="black"/>
<path d="M143.511 158.68H131.304V161.359H132.369L134.573 175.969H140.243L142.446 161.359H143.511V158.68Z" fill="#56CCF2"/>
<path opacity="0.3" d="M143.511 158.68H131.304V161.359H132.369L134.573 175.969H140.243L142.446 161.359H143.511V158.68Z" fill="white"/>
<path d="M33.6108 77.6982L19.4119 72.7853L18.1485 69.248L15.2639 69.1521L10.0293 68.1009L10.6588 69.248L17.2473 74.3163L18.8729 75.1755L33.7229 83.3971L33.6108 77.6982Z" fill="white" stroke="#263238" stroke-width="1.00396" stroke-miterlimit="10"/>
<path d="M18.1485 69.248L16.7946 68.3889L14.0911 69.44L14.5395 70.0112L18.1485 69.248Z" fill="white" stroke="#263238" stroke-width="1.00396" stroke-linejoin="round"/>
<path d="M33.6108 77.6982L19.4119 72.7853L18.1485 69.248L15.2639 69.1521L10.0293 68.1009L10.6588 69.248L17.2473 74.3163L18.8729 75.1755L33.7229 83.3971L33.6108 77.6982Z" fill="white"/>
<mask id="mask0_37_906" style="mask-type:luminance" maskUnits="userSpaceOnUse" x="10" y="68" width="24" height="16">
<path d="M33.6108 77.6982L19.4119 72.7853L18.1485 69.248L15.2639 69.1521L10.0293 68.1009L10.6588 69.248L17.2473 74.3163L18.8729 75.1755L33.7229 83.3971L33.6108 77.6982Z" fill="white"/>
</mask>
<g mask="url(#mask0_37_906)">
<path opacity="0.5" d="M33.6108 77.6982L19.4119 72.7853L18.1485 69.248L15.2639 69.1521L10.0293 68.1009L10.6588 69.248L17.2473 74.3163L18.8729 75.1755L33.7229 83.3971L33.6108 77.6982Z" fill="#56CCF2" stroke="#263238" stroke-width="1.00396" stroke-miterlimit="10"/>
</g>
<path d="M33.6108 77.6982L19.4119 72.7853L18.1485 69.248L15.2639 69.1521L10.0293 68.1009L10.6588 69.248L17.2473 74.3163L18.8729 75.1755L33.7229 83.3971L33.6108 77.6982Z" stroke="#263238" stroke-width="1.00396" stroke-miterlimit="10"/>
<path d="M18.1485 69.248L16.7946 68.3889L14.0911 69.44L14.5395 70.0112L18.1485 69.248Z" fill="white"/>
<mask id="mask1_37_906" style="mask-type:luminance" maskUnits="userSpaceOnUse" x="14" y="68" width="5" height="3">
<path d="M18.1485 69.248L16.7946 68.3889L14.0911 69.44L14.5395 70.0112L18.1485 69.248Z" fill="white"/>
</mask>
<g mask="url(#mask1_37_906)">
<path opacity="0.5" d="M18.1485 69.248L16.7946 68.3889L14.0911 69.44L14.5395 70.0112L18.1485 69.248Z" fill="#56CCF2" stroke="#263238" stroke-width="1.00396" stroke-linejoin="round"/>
</g>
<path d="M18.1485 69.248L16.7946 68.3889L14.0911 69.44L14.5395 70.0112L18.1485 69.248Z" stroke="#263238" stroke-width="1.00396" stroke-linejoin="round"/>
<path d="M36.6248 45.8125C36.6248 45.8125 36.4049 47.8691 36.9525 49.1898C37.5001 50.5106 40.54 54.9847 40.54 54.9847L34.8656 59.8062C34.8656 59.8062 32.5113 54.7791 32.0629 53.9656C31.6144 53.1521 31.0754 49.6514 32.5372 47.1424C33.9989 44.6334 36.1031 43.9571 36.6248 45.8125Z" fill="white"/>
<mask id="mask2_37_906" style="mask-type:luminance" maskUnits="userSpaceOnUse" x="31" y="44" width="10" height="16">
<path d="M36.6248 45.8125C36.6248 45.8125 36.4049 47.8691 36.9525 49.1898C37.5001 50.5106 40.54 54.9847 40.54 54.9847L34.8656 59.8062C34.8656 59.8062 32.5113 54.7791 32.0629 53.9656C31.6144 53.1521 31.0754 49.6514 32.5372 47.1424C33.9989 44.6334 36.1031 43.9571 36.6248 45.8125Z" fill="white"/>
</mask>
<g mask="url(#mask2_37_906)">
<g style="mix-blend-mode:multiply" opacity="0.5">
<path d="M33.71 52.4209L36.172 57.8319L34.8612 59.8108L32.3862 55.1264L33.71 52.4209Z" fill="#56CCF2"/>
</g>
</g>
<path d="M36.6248 45.8125C36.6248 45.8125 36.4049 47.8691 36.9525 49.1898C37.5001 50.5106 40.54 54.9847 40.54 54.9847L34.8656 59.8062C34.8656 59.8062 32.5113 54.7791 32.0629 53.9656C31.6144 53.1521 31.0754 49.6514 32.5372 47.1424C33.9989 44.6334 36.1031 43.9571 36.6248 45.8125Z" stroke="#263238" stroke-width="1.00396" stroke-miterlimit="10"/>
<path d="M38.384 42.0468C38.0348 39.7617 35.5641 35.1139 31.6446 35.2921C29.1006 35.411 27.9105 35.9548 26.8067 36.6175C25.9069 37.1793 25.0683 37.8445 24.3058 38.6009C22.3914 41.0368 21.7187 41.704 22.0895 43.5686C22.0591 44.3123 22.1691 45.055 22.4129 45.7531C22.9993 47.4121 23.4003 48.4952 23.9091 49.2858C23.7539 50.0582 23.3486 52.0964 23.327 52.5626C23.3055 53.0287 24.6206 52.7043 25.2846 52.526C26.5178 55.4509 28.7772 57.48 29.4801 57.7131C30.7046 58.1198 32.6406 55.9856 33.6669 54.3312C34.6931 52.6768 33.9169 50.8168 33.9213 50.0764C33.9256 49.3361 36.2281 47.7091 37.0818 47.1927C37.9356 46.6763 38.729 44.3273 38.384 42.0468Z" fill="white"/>
<mask id="mask3_37_906" style="mask-type:luminance" maskUnits="userSpaceOnUse" x="21" y="35" width="18" height="23">
<path d="M38.384 42.0468C38.0348 39.7617 35.5641 35.1139 31.6446 35.2921C29.1006 35.411 27.9105 35.9548 26.8067 36.6175C25.9069 37.1793 25.0683 37.8445 24.3058 38.6009C22.3914 41.0368 21.7187 41.704 22.0895 43.5686C22.0591 44.3123 22.1691 45.055 22.4129 45.7531C22.9993 47.4121 23.4003 48.4952 23.9091 49.2858C23.7539 50.0582 23.3486 52.0964 23.327 52.5626C23.3055 53.0287 24.6206 52.7043 25.2846 52.526C26.5178 55.4509 28.7772 57.48 29.4801 57.7131C30.7046 58.1198 32.6406 55.9856 33.6669 54.3312C34.6931 52.6768 33.9169 50.8168 33.9213 50.0764C33.9256 49.3361 36.2281 47.7091 37.0818 47.1927C37.9356 46.6763 38.729 44.3273 38.384 42.0468Z" fill="white"/>
</mask>
<g mask="url(#mask3_37_906)">
<g style="mix-blend-mode:multiply" opacity="0.5">
<path d="M22.1066 43.5686C22.0762 44.3123 22.1862 45.055 22.43 45.7531C23.0164 47.4121 23.4174 48.4952 23.9262 49.2858C23.771 50.0582 23.3657 52.0964 23.3441 52.5626C23.3226 53.0287 24.6377 52.7043 25.3017 52.526C26.5349 55.4509 28.7943 57.48 29.4971 57.7131C30.7217 58.1198 32.6577 55.9856 33.6839 54.3312C33.9403 53.9182 34.1068 53.4498 34.1712 52.9602C34.1151 52.7454 34.0763 52.6129 34.0763 52.6129C34.0763 52.6129 33.4985 54.9665 32.3516 54.6603C31.2046 54.3541 29.4497 51.9182 28.4709 51.0773C27.4921 50.2364 27.8931 49.1304 27.6991 47.8782C27.5051 46.626 24.6075 45.5246 24.4135 44.8071C24.2194 44.0896 24.8964 41.119 24.8964 41.119C24.8964 41.119 25.9959 39.5652 25.7588 40.205C25.5912 40.7598 25.5304 41.3446 25.58 41.9247C25.6296 42.5049 25.7886 43.0685 26.0477 43.5823C26.2294 43.9877 26.5178 44.3289 26.878 44.5648C27.2383 44.8007 27.6552 44.9213 28.0785 44.9122L29.1306 39.387L26.91 37.4401L24.3229 38.5826C22.3912 41.0368 21.7315 41.704 22.1066 43.5686Z" fill="#56CCF2"/>
</g>
</g>
<path d="M38.384 42.0468C38.0348 39.7617 35.5641 35.1139 31.6446 35.2921C29.1006 35.411 27.9105 35.9548 26.8067 36.6175C25.9069 37.1793 25.0683 37.8445 24.3058 38.6009C22.3914 41.0368 21.7187 41.704 22.0895 43.5686C22.0591 44.3123 22.1691 45.055 22.4129 45.7531C22.9993 47.4121 23.4003 48.4952 23.9091 49.2858C23.7539 50.0582 23.3486 52.0964 23.327 52.5626C23.3055 53.0287 24.6206 52.7043 25.2846 52.526C26.5178 55.4509 28.7772 57.48 29.4801 57.7131C30.7046 58.1198 32.6406 55.9856 33.6669 54.3312C34.6931 52.6768 33.9169 50.8168 33.9213 50.0764C33.9256 49.3361 36.2281 47.7091 37.0818 47.1927C37.9356 46.6763 38.729 44.3273 38.384 42.0468Z" stroke="#263238" stroke-miterlimit="10"/>
<path d="M24.4438 47.9056L24.875 49.2127C24.875 49.2127 25.8021 49.5372 26.9318 48.2301" stroke="#263238" stroke-miterlimit="10" stroke-linecap="round"/>
<path d="M27.6303 54.0113C27.6303 54.0113 28.6565 53.9016 29.0704 52.3752" stroke="#263238" stroke-miterlimit="10" stroke-linecap="round"/>
<path d="M23.7237 46.8134C23.7237 46.8134 24.0299 45.8308 25.8796 45.8308" stroke="#263238" stroke-miterlimit="10" stroke-linecap="round"/>
<path d="M33.2055 33.4732C31.8614 33.2684 30.5059 33.1585 29.148 33.1442C29.148 33.1442 25.0863 30.6626 21.184 33.3087C17.2818 35.9548 19.1575 40.5889 19.1575 41.7451C19.1575 42.9014 17.907 42.9059 18.6875 44.3958C19.4679 45.8857 22.1068 45.063 22.1068 45.063C22.1347 44.5011 22.2748 43.9519 22.5178 43.4516C22.7609 42.9513 23.1014 42.5114 23.5168 42.161C24.9224 41.0048 26.0435 40.7534 26.5092 41.087C26.5092 41.087 26.1987 43.5686 26.6644 44.5603C26.6644 44.5603 28.2253 45.3875 28.6953 45.3875C29.1653 45.3875 28.3891 46.0867 29.9457 46.7083C30.2293 46.8162 30.5327 46.853 30.8319 46.8157C31.1312 46.7785 31.4182 46.6682 31.6705 46.4935C31.899 45.4881 32.3992 43.9753 33.3305 44.3272C34.6974 44.8437 35.9435 48.4084 34.0937 49.624C36.3186 50.0536 39.0135 45.8811 39.1731 42.0788C39.3326 38.2764 35.5166 33.9028 33.2055 33.4732Z" fill="#263238"/>
<path d="M26.5782 39.4555C26.5782 39.4555 27.7251 38.802 29.1308 40.2004C30.5364 41.5989 33.2701 43.4681 36.8921 42.4398" stroke="white" stroke-width="0.5" stroke-linecap="round" stroke-linejoin="round"/>
<path d="M26.4186 38.3358C26.4186 38.3358 27.2077 37.0288 28.5271 37.0288C29.8466 37.0288 32.9295 38.9894 35.3916 38.9894" stroke="white" stroke-width="0.5" stroke-linecap="round" stroke-linejoin="round"/>
<path d="M25.5218 40.854C25.5218 40.854 24.0256 38.898 22.6199 40.4838C21.2142 42.0696 22.1068 43.5686 22.1068 43.5686" stroke="white" stroke-width="0.5" stroke-linecap="round" stroke-linejoin="round"/>
<path d="M19.5412 42.161C20.3986 41.3415 20.9316 40.2084 21.0331 38.9894C21.2099 36.9374 23.8531 35.1642 25.5218 36.846" stroke="white" stroke-width="0.5" stroke-linecap="round" stroke-linejoin="round"/>
<path d="M22.2663 34.698C22.2663 34.698 24.9095 31.9925 27.1085 35.443" stroke="white" stroke-width="0.5" stroke-linecap="round" stroke-linejoin="round"/>
<path d="M43.7781 167.72C43.7781 167.72 45.4037 170.398 45.2226 172.121L45.0458 173.844C45.0458 173.844 39.0825 175.576 37.8192 175.576C36.5558 175.576 29.8681 174.904 29.8681 174.904L29.5792 173.689C29.559 173.599 29.5685 173.504 29.6062 173.421C29.6439 173.338 29.7074 173.271 29.7862 173.232L35.7495 170.284L37.6294 168.104L43.7781 167.72Z" fill="white" stroke="#263238" stroke-width="1.00396" stroke-miterlimit="10"/>
<path d="M38.7246 174.228C40.3416 174.36 43.4116 173.314 45.1924 172.647L45.0674 173.844C45.0674 173.844 39.0825 175.576 37.8192 175.576C36.5558 175.576 29.8681 174.904 29.8681 174.904L29.6611 174.036C30.7305 174.041 36.586 174.054 38.7246 174.228Z" fill="#56CCF2" stroke="#263238" stroke-width="1.00396" stroke-miterlimit="10"/>
<path d="M35.7581 170.284L27.0784 174.287C27.0784 174.287 26.3367 176.257 27.0784 176.65C27.82 177.043 43.9894 176.65 43.9894 176.65C43.9894 176.65 45.1062 173.538 43.3427 171.449C41.5791 169.361 35.7581 170.284 35.7581 170.284Z" fill="white" stroke="#263238" stroke-width="1.00396" stroke-miterlimit="10"/>
<path d="M43.9894 176.65C43.9894 176.65 27.82 177.043 27.0783 176.65C26.7205 176.458 26.7075 175.905 26.7894 175.38H44.274C44.2169 175.812 44.1216 176.237 43.9894 176.65Z" fill="#56CCF2" stroke="#263238" stroke-width="1.00396" stroke-miterlimit="10"/>
<path d="M31.6532 100.722C31.6532 100.722 29.3852 111.375 28.5271 118.038C27.6691 124.702 27.1646 138.051 27.3457 139.582C27.5268 141.113 36.5558 166.765 36.5558 166.765L37.457 169.05L43.7781 167.711C43.7781 167.711 40.8892 157.949 39.8069 152.588C38.7246 147.228 36.3574 138.421 36.3574 136.89C36.3574 135.359 41.9628 106.12 42.3638 104.2C42.7648 102.281 44.5845 99.333 44.5845 99.333L32.4811 99.0725L31.6532 100.722Z" fill="#56CCF2" stroke="#263238" stroke-width="1.00396" stroke-miterlimit="10"/>
<path d="M31.6532 100.722C31.6532 100.722 30.3252 110.452 30.8728 117.216C31.4204 123.98 32.5975 138.38 32.5975 140.523C32.5975 142.667 35.8616 155.468 36.047 159.489C36.3359 165.298 35.9306 168.173 35.9306 168.173L35.7366 170.279C35.7366 170.279 39.5439 170.855 40.3761 171.107C41.3373 171.369 42.3292 171.483 43.3211 171.445C43.3211 171.445 44.7052 164.987 44.7052 159.485C44.7052 153.982 43.5539 142.658 42.9805 138.069C42.407 133.481 44.2137 115.781 45.2399 112.477C46.2661 109.172 48.5083 102.176 46.9991 98.6018C45.49 95.028 31.6532 100.722 31.6532 100.722Z" fill="#56CCF2" stroke="#263238" stroke-width="1.00396" stroke-miterlimit="10"/>
<path d="M48.6764 96.8104L48.5384 101.161C48.5384 101.161 46.0807 101.678 42.7692 102.285C40.0355 102.788 33.171 102.153 30.8599 101.915C30.6492 101.895 30.4545 101.788 30.3181 101.617C30.1816 101.446 30.1144 101.225 30.1312 101.001L30.3554 97.0709L48.6764 96.8104Z" fill="#263238"/>
<path d="M39.0696 53.44C39.0696 53.44 35.1889 57.8868 33.7272 60.6517C32.2655 63.4166 31.6877 67.6531 31.1401 70.9892C30.5925 74.3254 32.0758 82.1586 31.6575 85.7553L30.3338 97.0846C30.3338 97.0846 30.0492 97.8523 31.0021 98.6932C31.9551 99.5341 36.6075 99.8403 40.8116 100.064C42.3466 100.147 46.9301 99.1 47.6804 99.0497C48.5859 98.9903 48.616 97.7701 48.6549 96.8103C48.836 92.2997 49.6035 80.2757 50.1079 75.0384C51.1471 64.358 45.4598 54.0479 39.0696 53.44Z" fill="white" stroke="#263238" stroke-width="1.00396" stroke-miterlimit="10"/>
<g style="mix-blend-mode:multiply">
<path d="M49.6336 81.112C49.8061 78.7401 49.9786 76.5876 50.1295 75.0384C50.1726 74.5813 50.1985 74.1243 50.22 73.6673L39.9104 75.4954L31.0539 72.2963C31.0548 74.2386 31.1585 76.1794 31.3643 78.1095L40.0527 80.687L49.6336 81.112Z" fill="#56CCF2"/>
</g>
<g style="mix-blend-mode:multiply">
<path d="M38.6858 53.8879C38.0994 54.578 36.9352 55.981 35.8271 57.4709L42.3725 64.5225L44.5284 63.6085L38.6858 53.8879Z" fill="#56CCF2"/>
</g>
<path d="M39.0696 53.44C39.0696 53.44 35.1889 57.8868 33.7272 60.6517C33.2938 61.492 32.9427 62.3771 32.6794 63.2932L40.4839 53.7371C40.0228 53.5891 39.5491 53.4896 39.0696 53.44Z" fill="#263238"/>
<g style="mix-blend-mode:multiply">
<path d="M31.442 69.1886L39.9104 72.1409L50.1942 70.8887C50.033 68.1735 49.4639 65.5029 48.5083 62.9778L40.2166 66.5014L32.8045 62.9413C32.1984 64.9832 31.7429 67.0719 31.442 69.1886Z" fill="#56CCF2"/>
</g>
<g style="mix-blend-mode:multiply">
<path d="M46.0203 92.2997C41.7251 93.064 37.318 92.6823 33.1969 91.1891L31.1315 90.4396L30.489 95.9237L32.8433 96.623C37.3189 97.9492 41.9966 98.3312 46.611 97.7472L48.5125 97.505C48.6115 97.2829 48.6672 97.042 48.6764 96.7966C48.7281 95.5764 48.8187 93.8032 48.9351 91.7695L46.0203 92.2997Z" fill="#56CCF2"/>
</g>
<g style="mix-blend-mode:multiply">
<path d="M47.1716 84.8321C42.8762 85.5995 38.468 85.2161 34.3481 83.717L31.7179 82.7618C31.7831 83.7575 31.7702 84.7573 31.6791 85.7507L31.373 88.3876L33.9946 89.1646C38.4684 90.4922 43.1447 90.8758 47.758 90.2934L49.0515 90.1289C49.1593 88.3008 49.2844 86.3539 49.418 84.4299L47.1716 84.8321Z" fill="#56CCF2"/>
</g>
<path d="M6.71833 65.506L15.0555 72.6107L15.4148 72.137L7.07767 65.0323L6.71833 65.506Z" fill="#263238"/>
<path d="M43.084 58.3712C43.084 58.3712 46.1411 60.5785 46.21 65.793C46.2402 68.0781 46.016 70.2123 45.5202 73.9552C45.0243 77.6982 41.9456 89.8866 39.5482 91.3674C37.1508 92.8481 33.4297 90.0512 33.4297 90.0512L15.4321 77.3874L11.0814 73.6628L8.92548 69.3486L9.60244 67.9775L14.9103 72.2917L12.0516 69.4903L12.6121 68.7362L13.647 69.4994L16.6652 70.6968L17.325 75.2669L18.2563 75.9432L35.4735 82.611C35.4735 82.611 35.2579 72.7899 35.4175 70.9116C35.577 69.0332 35.7969 64.3123 37.6941 60.8893" fill="white"/>
<mask id="mask4_37_906" style="mask-type:luminance" maskUnits="userSpaceOnUse" x="8" y="58" width="39" height="34">
<path d="M43.084 58.3712C43.084 58.3712 46.1411 60.5785 46.21 65.793C46.2402 68.0781 46.016 70.2123 45.5202 73.9552C45.0243 77.6982 41.9456 89.8866 39.5482 91.3674C37.1508 92.8481 33.4297 90.0512 33.4297 90.0512L15.4321 77.3874L11.0814 73.6628L8.92548 69.3486L9.60244 67.9775L14.9103 72.2917L12.0516 69.4903L12.6121 68.7362L13.647 69.4994L16.6652 70.6968L17.325 75.2669L18.2563 75.9432L35.4735 82.611C35.4735 82.611 35.2579 72.7899 35.4175 70.9116C35.577 69.0332 35.7969 64.3123 37.6941 60.8893" fill="white"/>
</mask>
<g mask="url(#mask4_37_906)">
<g style="mix-blend-mode:multiply" opacity="0.5">
<path d="M35.3528 75.1892C35.3528 78.5802 35.4606 82.611 35.4606 82.611L18.2606 75.9707L17.3293 75.2943L16.6695 70.7242L13.6513 69.5268L12.6207 68.7499L12.0602 69.504L14.9103 72.2917L9.60243 67.9775L8.95996 69.3257L11.1159 73.6399L15.4665 77.3874L16.5618 78.1597L40.3416 86.2808L35.3528 75.1892Z" fill="#56CCF2"/>
</g>
</g>
<path d="M43.084 58.3712C43.084 58.3712 46.1411 60.5785 46.21 65.793C46.2402 68.0781 46.016 70.2123 45.5202 73.9552C45.0243 77.6982 41.9456 89.8866 39.5482 91.3674C37.1508 92.8481 33.4297 90.0512 33.4297 90.0512L15.4321 77.3874L11.0814 73.6628L8.92548 69.3486L9.60244 67.9775L14.9103 72.2917L12.0516 69.4903L12.6121 68.7362L13.647 69.4994L16.6652 70.6968L17.325 75.2669L18.2563 75.9432L35.4735 82.611C35.4735 82.611 35.2579 72.7899 35.4175 70.9116C35.577 69.0332 35.7969 64.3123 37.6941 60.8893" stroke="#263238" stroke-width="1.00396" stroke-miterlimit="10"/>
<path d="M35.4735 82.611L42.0448 87.6381L43.748 84.4391C43.748 84.4391 44.9251 83.4565 45.0976 82.7161C45.2701 81.9758 45.0501 80.7738 45.2269 80.0335C45.4037 79.2931 46.2833 78.5985 46.3653 76.807C46.4472 75.0155 46.3653 73.5211 46.3653 73.5211C46.3653 73.5211 47.7882 67.3195 47.6329 64.6231C47.4777 61.9267 45.0243 57.1601 43.0581 57.055C41.0919 56.9499 38.5349 57.2652 36.5515 60.446C34.568 63.6268 34.9734 72.9133 34.6629 73.4937C34.3524 74.0741 34.7836 76.9395 34.7836 76.9395C34.6113 77.0758 34.4683 77.2493 34.3643 77.4487C34.2602 77.6481 34.1973 77.8687 34.18 78.0958C34.1455 78.8407 34.9044 80.6733 34.9044 80.6733L35.4735 82.611Z" fill="white" stroke="#263238" stroke-width="1.00396" stroke-miterlimit="10"/>
<g style="mix-blend-mode:multiply">
<path d="M34.8354 71.1081C34.8489 71.9056 34.7926 72.7026 34.6672 73.4891C34.3912 74.0101 34.706 76.3637 34.775 76.8436C38.471 78.0603 42.3793 78.3728 46.2057 77.7576C46.2879 77.4397 46.3371 77.1133 46.3523 76.7841C46.4386 74.9972 46.3523 73.4982 46.3523 73.4982C46.3523 73.4982 46.4774 72.9453 46.6498 72.1044C42.687 72.3713 38.7085 72.0358 34.8354 71.1081Z" fill="#56CCF2"/>
</g>
<g style="mix-blend-mode:multiply">
<path d="M36.2842 60.9533C35.6676 62.2649 35.3226 64.2346 35.1243 66.2318C39.0386 67.8151 43.259 68.3595 47.4174 67.8176C47.5833 66.7607 47.6569 65.6898 47.6373 64.6185C47.5626 63.7717 47.3738 62.9407 47.0767 62.1507C43.4458 62.2405 39.8189 61.8381 36.2842 60.9533Z" fill="#56CCF2"/>
</g>
<path d="M34.9044 80.7236L35.4606 82.611L42.0318 87.6381L43.735 84.4391C43.735 84.4391 44.9122 83.4565 45.0846 82.7161C45.1154 82.5874 45.1342 82.4557 45.1407 82.3231C41.6778 82.2597 38.2372 81.7221 34.9044 80.7236Z" fill="#263238"/>
<path d="M39.6603 171.047C39.6603 171.047 39.8069 167.089 40.5227 161.304C41.2385 155.518 39.518 147.301 39.2292 145.93C38.9403 144.559 39.3758 141.515 39.0869 140.446C38.798 139.376 37.4009 134.815 38.2245 129.523C39.0481 124.231 39.7164 110.242 39.7164 110.242C39.7164 110.242 37.6424 108.455 37.0344 106.129C36.4264 103.803 36.8921 103.071 36.8921 103.071" stroke="#263238" stroke-width="1.00396" stroke-miterlimit="10"/>
<path d="M40.6219 103.286L39.8242 107.966" stroke="#263238" stroke-width="1.00396" stroke-miterlimit="10"/>
</svg>
