<svg width="43" height="43" viewBox="0 0 43 43" fill="none" xmlns="http://www.w3.org/2000/svg">
<path d="M21.2 35.3333C29.0056 35.3333 35.3333 29.0056 35.3333 21.2C35.3333 13.3944 29.0056 7.06668 21.2 7.06668C13.3944 7.06668 7.06667 13.3944 7.06667 21.2C7.06667 29.0056 13.3944 35.3333 21.2 35.3333Z" fill="#3BAFDA"/>
<path d="M24.7333 24.2917C24.5279 24.2922 24.3251 24.2444 24.1415 24.1521L20.6082 22.3854C20.388 22.2753 20.2029 22.1061 20.0734 21.8967C19.9439 21.6874 19.8752 21.4461 19.875 21.2V12.3667C19.875 12.0152 20.0146 11.6782 20.2631 11.4297C20.5116 11.1813 20.8486 11.0417 21.2 11.0417C21.5514 11.0417 21.8884 11.1813 22.1369 11.4297C22.3854 11.6782 22.525 12.0152 22.525 12.3667V20.3803L25.3252 21.7812C25.5923 21.9146 25.8065 22.1342 25.9331 22.4046C26.0598 22.6749 26.0914 22.9801 26.0229 23.2707C25.9544 23.5613 25.7898 23.8202 25.5557 24.0055C25.3217 24.1908 25.0319 24.2916 24.7333 24.2917Z" fill="white"/>
<path d="M21.2 40.1917C19.934 40.1918 18.6711 40.0663 17.4299 39.8171C17.2593 39.7829 17.0971 39.7154 16.9525 39.6185C16.808 39.5216 16.6839 39.3972 16.5875 39.2523C16.3926 38.9598 16.322 38.6018 16.3911 38.2572C16.4254 38.0865 16.4928 37.9243 16.5898 37.7798C16.6867 37.6352 16.8111 37.5112 16.956 37.4147C17.2485 37.2199 17.6065 37.1493 17.9511 37.2184C19.0208 37.4328 20.109 37.5411 21.2 37.5417C21.5514 37.5417 21.8884 37.6813 22.1369 37.9298C22.3854 38.1782 22.525 38.5153 22.525 38.8667C22.525 39.2181 22.3854 39.5551 22.1369 39.8036C21.8884 40.0521 21.5514 40.1917 21.2 40.1917ZM12.7306 38.0328C12.5091 38.0332 12.291 37.978 12.0964 37.872C10.9858 37.2635 9.93829 36.5463 8.96936 35.7308C8.70018 35.5048 8.53183 35.181 8.50135 34.8308C8.47087 34.4806 8.58076 34.1327 8.80683 33.8635C9.03291 33.5943 9.35665 33.4259 9.70685 33.3955C10.0571 33.365 10.405 33.4749 10.6742 33.7009C11.5084 34.4033 12.4103 35.0211 13.3666 35.5453C13.6248 35.6866 13.8286 35.9098 13.9459 36.1797C14.0633 36.4496 14.0874 36.7509 14.0145 37.036C13.9416 37.3212 13.7758 37.5739 13.5433 37.7544C13.3109 37.9349 13.0249 38.0328 12.7306 38.0328ZM6.33526 32.0774C6.1134 32.0777 5.89503 32.0221 5.70023 31.9159C5.50543 31.8098 5.34046 31.6563 5.2205 31.4696C4.53495 30.4031 3.95735 29.271 3.49623 28.09C3.36902 27.762 3.37731 27.3969 3.51928 27.0751C3.66125 26.7532 3.92526 26.5009 4.25325 26.3737C4.58123 26.2465 4.94632 26.2548 5.26819 26.3967C5.59006 26.5387 5.84235 26.8027 5.96956 27.1307C6.36348 28.1459 6.85951 29.1184 7.45003 30.0333C7.57891 30.2335 7.65148 30.4647 7.66009 30.7027C7.66871 30.9406 7.61305 31.1765 7.49898 31.3854C7.38491 31.5944 7.21663 31.7688 7.01185 31.8903C6.80707 32.0117 6.57335 32.0775 6.33526 32.0774ZM3.57573 23.7864C3.24002 23.7858 2.91704 23.6578 2.67208 23.4283C2.42711 23.1987 2.27841 22.8847 2.25603 22.5497C2.22423 22.1045 2.20833 21.6523 2.20833 21.1982C2.20804 20.3837 2.25937 19.57 2.36203 18.762C2.41697 18.422 2.60195 18.1167 2.87787 17.9107C3.15379 17.7046 3.49903 17.6139 3.84061 17.6577C4.1822 17.7015 4.49336 17.8764 4.70833 18.1455C4.92331 18.4145 5.02524 18.7566 4.9926 19.0994C4.9025 19.796 4.85765 20.4977 4.85833 21.2C4.85833 21.5922 4.87187 21.9815 4.89896 22.3678C4.9112 22.5419 4.88885 22.7167 4.83322 22.8822C4.77759 23.0477 4.68977 23.2005 4.57482 23.3319C4.45987 23.4632 4.32006 23.5706 4.16345 23.6477C4.00683 23.7248 3.83651 23.7701 3.6623 23.7811L3.57573 23.7864ZM5.12333 15.1933C4.93289 15.1935 4.74474 15.1519 4.57213 15.0714C4.25291 14.9249 4.00484 14.6577 3.8823 14.3285C3.75977 13.9993 3.77277 13.635 3.91846 13.3154C4.4446 12.1608 5.08497 11.0617 5.83 10.0347C6.0371 9.75074 6.34851 9.5607 6.69572 9.50636C7.04294 9.45202 7.39752 9.53785 7.68146 9.74494C7.9654 9.95204 8.15545 10.2635 8.20978 10.6107C8.26412 10.9579 8.1783 11.3125 7.9712 11.5964C7.32915 12.4771 6.77696 13.4199 6.3229 14.4107C6.21932 14.6427 6.05109 14.8398 5.83834 14.9786C5.62559 15.1174 5.37735 15.192 5.12333 15.1933ZM10.6141 8.38108C10.3382 8.37926 10.0697 8.29123 9.84631 8.12931C9.62289 7.96738 9.45567 7.73966 9.36806 7.478C9.28045 7.21634 9.27684 6.93384 9.35771 6.67002C9.43859 6.40621 9.59992 6.17428 9.81913 6.00668C10.8341 5.24115 11.9245 4.58112 13.0733 4.03685C13.231 3.9598 13.4023 3.91482 13.5775 3.90454C13.7526 3.89425 13.9281 3.91885 14.0937 3.97692C14.2592 4.03498 14.4116 4.12535 14.542 4.24278C14.6723 4.36021 14.7781 4.50237 14.8531 4.66099C14.9281 4.81962 14.9708 4.99156 14.9788 5.16683C14.9868 5.3421 14.9599 5.51722 14.8997 5.68202C14.8395 5.84682 14.7471 5.99802 14.628 6.12684C14.5089 6.25566 14.3654 6.35954 14.2058 6.43245C13.2216 6.89834 12.287 7.46241 11.4162 8.11608C11.185 8.28967 10.9033 8.38274 10.6141 8.38108ZM18.6843 5.03678C18.3481 5.03804 18.024 4.91146 17.7777 4.6827C17.5313 4.45394 17.3812 4.14009 17.3576 3.80474C17.334 3.46939 17.4388 3.13762 17.6506 2.87663C17.8625 2.61564 18.1657 2.44495 18.4988 2.39915C19.3935 2.27172 20.2962 2.20796 21.2 2.20835C21.5514 2.20835 21.8884 2.34794 22.1369 2.59643C22.3854 2.84491 22.525 3.18193 22.525 3.53335C22.525 3.88476 22.3854 4.22178 22.1369 4.47026C21.8884 4.71875 21.5514 4.85835 21.2 4.85835C20.4215 4.85799 19.644 4.91289 18.8733 5.02264C18.8108 5.03255 18.7476 5.03728 18.6843 5.03678Z" fill="white"/>
<path d="M21.2 40.1917C20.8486 40.1917 20.5116 40.0521 20.2631 39.8036C20.0146 39.5551 19.875 39.2181 19.875 38.8667C19.875 38.5153 20.0146 38.1782 20.2631 37.9298C20.5116 37.6813 20.8486 37.5417 21.2 37.5417C25.5341 37.5417 29.6907 35.82 32.7553 32.7553C35.82 29.6907 37.5417 25.5341 37.5417 21.2C37.5417 16.8659 35.82 12.7094 32.7553 9.64471C29.6907 6.58005 25.5341 4.85834 21.2 4.85834C20.8486 4.85834 20.5116 4.71875 20.2631 4.47026C20.0146 4.22177 19.875 3.88476 19.875 3.53334C19.875 3.18193 20.0146 2.84491 20.2631 2.59643C20.5116 2.34794 20.8486 2.20834 21.2 2.20834C26.2369 2.20834 31.0675 4.20925 34.6292 7.77087C38.1908 11.3325 40.1917 16.1631 40.1917 21.2C40.1917 26.2369 38.1908 31.0675 34.6292 34.6291C31.0675 38.1908 26.2369 40.1917 21.2 40.1917Z" fill="white"/>
</svg>
