<svg width="42" height="33" viewBox="0 0 42 33" fill="none" xmlns="http://www.w3.org/2000/svg">
<path d="M4.15421 32.0592C3.05245 32.0592 1.99581 31.7098 1.21674 31.0879C0.437675 30.4659 0 29.6224 0 28.7428V22.1099C0 21.2303 0.437675 20.3868 1.21674 19.7648C1.99581 19.1429 3.05245 18.7935 4.15421 18.7935C5.25598 18.7935 6.31262 19.1429 7.09168 19.7648C7.87075 20.3868 8.30842 21.2303 8.30842 22.1099V28.7428C8.30842 29.6224 7.87075 30.4659 7.09168 31.0879C6.31262 31.7098 5.25598 32.0592 4.15421 32.0592ZM4.15421 21.0044C3.78696 21.0044 3.43474 21.1209 3.17506 21.3282C2.91537 21.5355 2.76947 21.8167 2.76947 22.1099V28.7428C2.76947 29.036 2.91537 29.3172 3.17506 29.5245C3.43474 29.7318 3.78696 29.8483 4.15421 29.8483C4.52147 29.8483 4.87368 29.7318 5.13337 29.5245C5.39306 29.3172 5.53895 29.036 5.53895 28.7428V22.1099C5.53895 21.8167 5.39306 21.5355 5.13337 21.3282C4.87368 21.1209 4.52147 21.0044 4.15421 21.0044ZM15.2321 32.0592C14.1303 32.0592 13.0737 31.7098 12.2946 31.0879C11.5156 30.4659 11.0779 29.6224 11.0779 28.7428V17.688C11.0779 16.8084 11.5156 15.9649 12.2946 15.3429C13.0737 14.721 14.1303 14.3716 15.2321 14.3716C16.3339 14.3716 17.3905 14.721 18.1696 15.3429C18.9486 15.9649 19.3863 16.8084 19.3863 17.688V28.7428C19.3863 29.6224 18.9486 30.4659 18.1696 31.0879C17.3905 31.7098 16.3339 32.0592 15.2321 32.0592ZM15.2321 16.5825C14.8649 16.5825 14.5126 16.699 14.253 16.9063C13.9933 17.1136 13.8474 17.3948 13.8474 17.688V28.7428C13.8474 29.036 13.9933 29.3172 14.253 29.5245C14.5126 29.7318 14.8649 29.8483 15.2321 29.8483C15.5994 29.8483 15.9516 29.7318 16.2113 29.5245C16.471 29.3172 16.6168 29.036 16.6168 28.7428V17.688C16.6168 17.3948 16.471 17.1136 16.2113 16.9063C15.9516 16.699 15.5994 16.5825 15.2321 16.5825ZM26.31 32.0592C25.2082 32.0592 24.1516 31.7098 23.3725 31.0879C22.5935 30.4659 22.1558 29.6224 22.1558 28.7428V13.2661C22.1558 12.3865 22.5935 11.543 23.3725 10.921C24.1516 10.2991 25.2082 9.94967 26.31 9.94967C27.4118 9.94967 28.4684 10.2991 29.2475 10.921C30.0265 11.543 30.4642 12.3865 30.4642 13.2661V28.7428C30.4642 29.6224 30.0265 30.4659 29.2475 31.0879C28.4684 31.7098 27.4118 32.0592 26.31 32.0592ZM26.31 12.1606C25.9428 12.1606 25.5905 12.2771 25.3309 12.4844C25.0712 12.6917 24.9253 12.9729 24.9253 13.2661V28.7428C24.9253 29.036 25.0712 29.3172 25.3309 29.5245C25.5905 29.7318 25.9428 29.8483 26.31 29.8483C26.6773 29.8483 27.0295 29.7318 27.2892 29.5245C27.5489 29.3172 27.6947 29.036 27.6947 28.7428V13.2661C27.6947 12.9729 27.5489 12.6917 27.2892 12.4844C27.0295 12.2771 26.6773 12.1606 26.31 12.1606ZM36.0032 32.0592C35.6359 32.0592 35.2837 31.9427 35.024 31.7354C34.7643 31.5281 34.6184 31.2469 34.6184 30.9537V7.53973H37.3879V30.9537C37.3879 31.2469 37.242 31.5281 36.9823 31.7354C36.7226 31.9427 36.3704 32.0592 36.0032 32.0592Z" fill="white"/>
<path d="M36.0031 10.8672L30.5196 3.86958C30.2071 3.48961 30.0303 3.04879 30.0084 2.59458C29.9865 2.14037 30.1202 1.69 30.3951 1.29196C30.6701 0.893927 31.0758 0.563311 31.5687 0.335723C32.0615 0.108136 32.6228 -0.00779815 33.1921 0.00040722H38.828C39.3961 -0.00575267 39.9556 0.11167 40.4464 0.340081C40.9373 0.568492 41.341 0.899272 41.6143 1.29694C41.8875 1.69461 42.02 2.14417 41.9975 2.59739C41.9751 3.05061 41.7985 3.4904 41.4867 3.86958L36.0031 10.8672ZM33.2336 2.21136C33.169 2.21118 33.1054 2.22491 33.0497 2.25111C32.994 2.27732 32.9481 2.31502 32.9169 2.36027C32.8857 2.40551 32.8704 2.45662 32.8725 2.50823C32.8747 2.55984 32.8942 2.61004 32.929 2.65355L36.0585 6.67749L39.1326 2.65355C39.1675 2.61004 39.187 2.55984 39.1891 2.50823C39.1912 2.45662 39.1759 2.40551 39.1447 2.36027C39.1135 2.31502 39.0677 2.27732 39.0119 2.25111C38.9562 2.22491 38.8927 2.21118 38.828 2.21136H33.2336Z" fill="white"/>
<path d="M6.9237 22.11C6.9237 20.8889 5.68376 19.899 4.15422 19.899C2.62469 19.899 1.38475 20.8889 1.38475 22.11V28.7428C1.38475 29.9639 2.62469 30.9538 4.15422 30.9538C5.68376 30.9538 6.9237 29.9639 6.9237 28.7428V22.11Z" fill="white"/>
<path d="M18.0016 17.688C18.0016 16.4669 16.7617 15.4771 15.2321 15.4771C13.7026 15.4771 12.4627 16.4669 12.4627 17.688V28.7428C12.4627 29.9639 13.7026 30.9537 15.2321 30.9537C16.7617 30.9537 18.0016 29.9639 18.0016 28.7428V17.688Z" fill="white"/>
<path d="M29.0794 13.2662C29.0794 12.0451 27.8395 11.0553 26.3099 11.0553C24.7804 11.0553 23.5405 12.0451 23.5405 13.2662V28.7429C23.5405 29.964 24.7804 30.9538 26.3099 30.9538C27.8395 30.9538 29.0794 29.964 29.0794 28.7429V13.2662Z" fill="white"/>
<path d="M36.0032 8.76691L40.3098 3.23953C40.4764 3.02773 40.5685 2.78402 40.5764 2.53399C40.5843 2.28397 40.5077 2.03685 40.3548 1.8186C40.2018 1.60034 39.978 1.41899 39.7069 1.2936C39.4359 1.16821 39.1275 1.10339 38.8142 1.10596H33.1922C32.8801 1.10539 32.5735 1.17165 32.3044 1.29786C32.0353 1.42406 31.8136 1.60557 31.6622 1.82348C31.5109 2.04139 31.4356 2.28771 31.4441 2.53677C31.4526 2.78584 31.5446 3.02852 31.7105 3.23953L36.0032 8.76691Z" fill="white"/>
</svg>
